<svg width="189" height="94" viewBox="0 0 189 94" fill="none" xmlns="http://www.w3.org/2000/svg">
<path fill-rule="evenodd" clip-rule="evenodd" d="M15.5 0H61.0553C65.9873 0 70.0001 4.04519 69.9999 9.01756V42.6423L56.0428 26.3667C55.07 25.1752 53.638 24.4471 52.1081 24.368C50.5681 24.2889 49.0571 24.8743 47.9662 25.9754L29.098 45.0263L22.0447 39.1217C20.0029 37.4124 17.0557 37.4277 15.0314 39.1554L0 51.7406V9.01756C0 4.04519 4.01284 0 8.94484 0H9C9 1.5464 10.2472 3.26667 11.7857 3.26667H12.7143C14.2528 3.26667 15.5 2.01306 15.5 0.466667V0ZM17.7857 4C16.2472 4 15 5.2536 15 6.8V7.73333C15 9.27973 16.2472 10.5333 17.7857 10.5333H18.7143C20.2528 10.5333 21.5 9.27973 21.5 7.73333V6.8C21.5 5.2536 20.2528 4 18.7143 4H17.7857ZM8 14.8C8 13.2536 9.24721 12 10.7857 12H11.7143C13.2528 12 14.5 13.2536 14.5 14.8V15.7333C14.5 17.2797 13.2528 18.5333 11.7143 18.5333H10.7857C9.24721 18.5333 8 17.2797 8 15.7333V14.8ZM17.7857 17C16.2472 17 15 18.2472 15 19.7857V20.7143C15 22.2528 16.2472 23.5 17.7857 23.5H18.7143C20.2528 23.5 21.5 22.2528 21.5 20.7143V19.7857C21.5 18.2472 20.2528 17 18.7143 17H17.7857ZM8 26.7857C8 25.2472 9.24721 24 10.7857 24H11.7143C13.2528 24 14.5 25.2472 14.5 26.7857V27.7143C14.5 29.2528 13.2528 30.5 11.7143 30.5H10.7857C9.24721 30.5 8 29.2528 8 27.7143V26.7857ZM15 33.7857C15 32.2472 16.2472 31 17.7857 31H18.7143C20.2528 31 21.5 32.2472 21.5 33.7857V34.7143C21.5 36.2528 20.2528 37.5 18.7143 37.5H17.7857C16.2472 37.5 15 36.2528 15 34.7143V33.7857ZM52.8647 28.4459C52.8781 28.4626 52.8915 28.4788 52.9055 28.495L70 48.4293V60.9824C70 65.9547 65.9874 70 61.0552 70H8.94484C4.01257 70 0 65.9548 0 60.9824V56.5749L17.689 41.7647L17.6934 41.761C18.1881 41.3364 18.9106 41.3318 19.4108 41.7507L27.9112 48.8666C28.7308 49.5527 29.9341 49.4963 30.6871 48.7362L50.8842 28.3433C51.2493 27.9748 51.6755 27.9385 51.897 27.9503C52.1185 27.9618 52.5389 28.0415 52.8647 28.4459ZM10.4997 50.4C10.6316 48.8173 11.9546 47.6 13.5428 47.6H19.59C21.1781 47.6 22.5012 48.8173 22.633 50.4V51.1L22.8664 55.0666L23.1471 59.5586C23.2479 61.1706 21.9677 62.5333 20.3526 62.5333H12.7802C11.1651 62.5333 9.88488 61.1706 9.98563 59.5586L10.2664 55.0666L10.4997 51.1V50.4ZM20.0729 56.4666H13.6262C12.8842 56.4666 12.2812 57.0266 12.2348 57.7266L12.1421 58.66C12.0493 59.5 12.6986 60.2 13.5335 60.2H20.0729C20.8613 60.2 21.5106 59.5 21.4642 58.7066L21.4179 57.7733C21.3715 57.0266 20.7686 56.4666 20.0729 56.4666ZM62.7649 56.76C64.4609 56.76 65.3089 57.912 65.3089 60.216C65.3089 61.32 65.0609 62.208 64.5649 62.88C64.0689 63.552 63.3329 63.888 62.3569 63.888C62.0369 63.888 61.7409 63.88 61.4689 63.864C61.1969 63.832 60.9729 63.8 60.7969 63.768V57.264C61.0209 57.12 61.3089 57 61.6609 56.904C62.0289 56.808 62.3969 56.76 62.7649 56.76ZM68.5009 63.048C68.8049 62.232 68.9569 61.32 68.9569 60.312C68.9569 59.32 68.8369 58.424 68.5969 57.624C68.3569 56.808 68.0049 56.112 67.5409 55.536C67.0769 54.96 66.5009 54.52 65.8129 54.216C65.1249 53.896 64.3329 53.736 63.4369 53.736C62.9409 53.736 62.4769 53.784 62.0449 53.88C61.6129 53.976 61.1969 54.112 60.7969 54.288V48L57.2209 48.576V66.216C57.5409 66.312 57.9089 66.408 58.3249 66.504C58.7409 66.584 59.1729 66.656 59.6209 66.72C60.0849 66.784 60.5489 66.832 61.0129 66.864C61.4929 66.912 61.9489 66.936 62.3809 66.936C63.4209 66.936 64.3489 66.784 65.1649 66.48C65.9809 66.16 66.6689 65.712 67.2289 65.136C67.7889 64.56 68.2129 63.864 68.5009 63.048ZM53.8594 66.624H50.2834V54H53.8594V66.624ZM54.1954 50.352C54.1954 51.008 53.9794 51.528 53.5474 51.912C53.1314 52.28 52.6354 52.464 52.0594 52.464C51.4834 52.464 50.9794 52.28 50.5474 51.912C50.1314 51.528 49.9234 51.008 49.9234 50.352C49.9234 49.696 50.1314 49.184 50.5474 48.816C50.9794 48.432 51.4834 48.24 52.0594 48.24C52.6354 48.24 53.1314 48.432 53.5474 48.816C53.9794 49.184 54.1954 49.696 54.1954 50.352ZM48.112 63.408V66.624H37V49.992H40.744V63.408H48.112ZM83.1053 51.768C83.2973 52.424 83.5053 53.168 83.7293 54C83.9693 54.816 84.2173 55.664 84.4733 56.544L85.2893 59.184C85.5613 60.064 85.8253 60.88 86.0813 61.632C86.2893 60.816 86.4973 59.928 86.7053 58.968C86.9293 58.008 87.1373 57.016 87.3293 55.992C87.5213 54.968 87.7053 53.952 87.8813 52.944C88.0733 51.92 88.2493 50.936 88.4093 49.992H92.2973C91.7373 52.776 91.0893 55.6 90.3533 58.464C89.6333 61.328 88.8493 64.048 88.0013 66.624H84.5693C84.0093 65.088 83.4653 63.48 82.9373 61.8C82.4093 60.104 81.8893 58.408 81.3773 56.712L79.8413 61.8C79.3293 63.48 78.7933 65.088 78.2333 66.624H74.8013C73.9533 64.048 73.1613 61.328 72.4253 58.464C71.7053 55.6 71.0653 52.776 70.5053 49.992H74.5613C74.7213 50.936 74.8973 51.92 75.0893 52.944C75.2813 53.952 75.4813 54.968 75.6893 55.992C75.8973 57.016 76.1053 58.008 76.3133 58.968C76.5373 59.928 76.7613 60.816 76.9853 61.632C77.2733 60.848 77.5533 60.016 77.8253 59.136C78.0973 58.256 78.3613 57.376 78.6173 56.496C78.8733 55.616 79.1053 54.768 79.3133 53.952C79.5373 53.136 79.7373 52.408 79.9133 51.768H83.1053ZM93.5703 57.48C93.2343 58.312 93.0663 59.288 93.0663 60.408C93.0663 61.336 93.1942 62.2 93.4502 63C93.7222 63.8 94.1302 64.496 94.6742 65.088C95.2343 65.664 95.9303 66.12 96.7623 66.456C97.6103 66.792 98.6022 66.96 99.7383 66.96C100.186 66.96 100.634 66.936 101.082 66.888C101.53 66.84 101.946 66.776 102.33 66.696C102.73 66.632 103.09 66.552 103.41 66.456C103.73 66.36 103.986 66.264 104.178 66.168L103.698 63.264C103.298 63.44 102.778 63.592 102.138 63.72C101.514 63.832 100.874 63.888 100.218 63.888C99.1943 63.888 98.3783 63.672 97.7702 63.24C97.1622 62.808 96.8183 62.224 96.7383 61.488H104.85C104.866 61.296 104.882 61.08 104.898 60.84C104.914 60.584 104.922 60.352 104.922 60.144C104.922 58.016 104.402 56.408 103.362 55.32C102.322 54.216 100.906 53.664 99.1143 53.664C98.3463 53.664 97.5943 53.808 96.8583 54.096C96.1383 54.384 95.4982 54.808 94.9382 55.368C94.3783 55.928 93.9223 56.632 93.5703 57.48ZM101.298 58.152C101.394 58.44 101.45 58.736 101.466 59.04H96.7383C96.7863 58.736 96.8583 58.44 96.9543 58.152C97.0663 57.848 97.2182 57.584 97.4102 57.36C97.6022 57.136 97.8422 56.96 98.1302 56.832C98.4183 56.688 98.7623 56.616 99.1623 56.616C99.5783 56.616 99.9223 56.688 100.194 56.832C100.482 56.976 100.714 57.16 100.89 57.384C101.082 57.608 101.218 57.864 101.298 58.152ZM113.226 56.76C112.858 56.76 112.49 56.808 112.122 56.904C111.77 57 111.482 57.12 111.258 57.264V63.768C111.434 63.8 111.658 63.832 111.93 63.864C112.202 63.88 112.498 63.888 112.818 63.888C113.794 63.888 114.53 63.552 115.026 62.88C115.522 62.208 115.77 61.32 115.77 60.216C115.77 57.912 114.922 56.76 113.226 56.76ZM119.418 60.312C119.418 61.32 119.266 62.232 118.962 63.048C118.674 63.864 118.25 64.56 117.69 65.136C117.13 65.712 116.442 66.16 115.626 66.48C114.81 66.784 113.882 66.936 112.842 66.936C112.41 66.936 111.954 66.912 111.474 66.864C111.01 66.832 110.546 66.784 110.082 66.72C109.634 66.656 109.202 66.584 108.786 66.504C108.37 66.408 108.002 66.312 107.682 66.216V48.576L111.258 48V54.288C111.658 54.112 112.074 53.976 112.506 53.88C112.938 53.784 113.402 53.736 113.898 53.736C114.794 53.736 115.586 53.896 116.274 54.216C116.962 54.52 117.538 54.96 118.002 55.536C118.466 56.112 118.818 56.808 119.058 57.624C119.298 58.424 119.418 59.32 119.418 60.312ZM133.11 51.12C131.782 50.24 129.878 49.8 127.398 49.8C126.71 49.8 125.91 49.832 124.998 49.896C124.086 49.96 123.222 50.072 122.406 50.232V66.624H126.15V61.056H127.326C129.822 61.056 131.742 60.616 133.086 59.736C134.43 58.84 135.102 57.392 135.102 55.392C135.102 53.408 134.438 51.984 133.11 51.12ZM126.822 53.016C127.094 53 127.366 52.992 127.638 52.992C128.182 52.992 128.678 53.032 129.126 53.112C129.574 53.176 129.95 53.304 130.254 53.496C130.574 53.672 130.814 53.912 130.974 54.216C131.15 54.52 131.238 54.904 131.238 55.368C131.238 56.328 130.91 56.984 130.254 57.336C129.598 57.688 128.622 57.864 127.326 57.864H126.15V53.064C126.342 53.048 126.566 53.032 126.822 53.016ZM138.631 64.728C138.631 65.448 138.399 66 137.935 66.384C137.487 66.752 136.975 66.936 136.399 66.936C135.823 66.936 135.303 66.752 134.839 66.384C134.391 66 134.167 65.448 134.167 64.728C134.167 64.008 134.391 63.464 134.839 63.096C135.303 62.712 135.823 62.52 136.399 62.52C136.975 62.52 137.487 62.712 137.935 63.096C138.399 63.464 138.631 64.008 138.631 64.728ZM154.719 60.984C155.967 62.84 157.127 64.72 158.199 66.624H161.343V49.992H157.623V59.808C157.047 58.944 156.431 58.048 155.775 57.12C155.119 56.176 154.455 55.272 153.783 54.408C153.127 53.528 152.479 52.704 151.839 51.936C151.199 51.168 150.615 50.52 150.087 49.992H147.039V66.624H150.735V55.728C152.143 57.376 153.471 59.128 154.719 60.984ZM164.34 60.408C164.34 59.288 164.508 58.312 164.844 57.48C165.196 56.632 165.652 55.928 166.212 55.368C166.772 54.808 167.412 54.384 168.132 54.096C168.868 53.808 169.62 53.664 170.388 53.664C172.18 53.664 173.596 54.216 174.636 55.32C175.676 56.408 176.196 58.016 176.196 60.144C176.196 60.352 176.188 60.584 176.172 60.84C176.156 61.08 176.14 61.296 176.124 61.488H168.012C168.092 62.224 168.436 62.808 169.044 63.24C169.652 63.672 170.468 63.888 171.492 63.888C172.148 63.888 172.788 63.832 173.412 63.72C174.052 63.592 174.572 63.44 174.972 63.264L175.452 66.168C175.26 66.264 175.004 66.36 174.684 66.456C174.364 66.552 174.004 66.632 173.604 66.696C173.22 66.776 172.804 66.84 172.356 66.888C171.908 66.936 171.46 66.96 171.012 66.96C169.876 66.96 168.884 66.792 168.036 66.456C167.204 66.12 166.508 65.664 165.948 65.088C165.404 64.496 164.996 63.8 164.724 63C164.468 62.2 164.34 61.336 164.34 60.408ZM172.74 59.04C172.724 58.736 172.668 58.44 172.572 58.152C172.492 57.864 172.356 57.608 172.164 57.384C171.988 57.16 171.756 56.976 171.468 56.832C171.196 56.688 170.852 56.616 170.436 56.616C170.036 56.616 169.692 56.688 169.404 56.832C169.116 56.96 168.876 57.136 168.684 57.36C168.492 57.584 168.34 57.848 168.228 58.152C168.132 58.44 168.06 58.736 168.012 59.04H172.74ZM182.411 50.28L178.835 50.856V61.464C178.835 62.28 178.907 63.024 179.051 63.696C179.211 64.368 179.483 64.944 179.867 65.424C180.251 65.888 180.763 66.256 181.403 66.528C182.043 66.784 182.851 66.912 183.827 66.912C184.595 66.912 185.243 66.848 185.771 66.72C186.299 66.592 186.779 66.44 187.211 66.264L186.707 63.48C186.371 63.608 185.995 63.712 185.579 63.792C185.179 63.856 184.787 63.888 184.403 63.888C183.603 63.888 183.067 63.664 182.795 63.216C182.539 62.768 182.411 62.168 182.411 61.416V56.976H186.707V54H182.411V50.28Z" fill="#10002B"/>
<g filter="url(#filter0_f)">
<path d="M48.0964 88.6278V91.681H37V75.8911H40.7387V88.6278H48.0964Z" fill="url(#paint0_linear)"/>
<path d="M53.8357 91.681H50.2648V79.6962H53.8357V91.681ZM54.1712 76.2329C54.1712 76.8557 53.9556 77.3494 53.5242 77.7139C53.1087 78.0633 52.6134 78.238 52.0383 78.238C51.4631 78.238 50.9598 78.0633 50.5284 77.7139C50.113 77.3494 49.9053 76.8557 49.9053 76.2329C49.9053 75.6101 50.113 75.1241 50.5284 74.7747C50.9598 74.4101 51.4631 74.2278 52.0383 74.2278C52.6134 74.2278 53.1087 74.4101 53.5242 74.7747C53.9556 75.1241 54.1712 75.6101 54.1712 76.2329Z" fill="url(#paint1_linear)"/>
<path d="M65.2691 85.5975C65.2691 83.4101 64.4223 82.3165 62.7287 82.3165C62.3612 82.3165 61.9937 82.362 61.6262 82.4532C61.2747 82.5443 60.9871 82.6582 60.7635 82.7949V88.9696C60.9392 89 61.1629 89.0304 61.4345 89.0608C61.7061 89.0759 62.0017 89.0835 62.3213 89.0835C63.2959 89.0835 64.0309 88.7646 64.5262 88.1266C65.0215 87.4886 65.2691 86.6456 65.2691 85.5975ZM68.912 85.6886C68.912 86.6456 68.7602 87.5114 68.4566 88.2861C68.169 89.0608 67.7456 89.7215 67.1864 90.2684C66.6272 90.8152 65.9402 91.2405 65.1253 91.5443C64.3105 91.8329 63.3838 91.9772 62.3452 91.9772C61.9138 91.9772 61.4585 91.9544 60.9792 91.9089C60.5158 91.8785 60.0525 91.8329 59.5891 91.7722C59.1417 91.7114 58.7104 91.643 58.2949 91.5671C57.8795 91.4759 57.512 91.3848 57.1925 91.2937V74.5468L60.7635 74V79.9696C61.1629 79.8025 61.5783 79.6734 62.0097 79.5823C62.4411 79.4911 62.9044 79.4456 63.3997 79.4456C64.2945 79.4456 65.0854 79.5975 65.7724 79.9013C66.4594 80.1899 67.0346 80.6076 67.498 81.1544C67.9613 81.7013 68.3128 82.362 68.5525 83.1367C68.7921 83.8962 68.912 84.7468 68.912 85.6886Z" fill="url(#paint2_linear)"/>
<path d="M83.0405 77.5772C83.2322 78.2 83.4399 78.9063 83.6636 79.6962C83.9032 80.4709 84.1509 81.2759 84.4065 82.1114C84.6781 82.9468 84.9498 83.7823 85.2214 84.6177C85.493 85.4532 85.7566 86.2278 86.0123 86.9418C86.22 86.1671 86.4277 85.3241 86.6354 84.4127C86.8591 83.5013 87.0668 82.5595 87.2585 81.5873C87.4502 80.6152 87.634 79.6506 87.8097 78.6937C88.0015 77.7215 88.1772 76.7873 88.337 75.8911H92.2195C91.6603 78.5342 91.0132 81.2152 90.2783 83.9342C89.5593 86.6532 88.7764 89.2354 87.9296 91.681H84.5024C83.9432 90.2228 83.3999 88.6962 82.8727 87.1013C82.3454 85.4911 81.8262 83.881 81.3149 82.2709C80.8036 83.881 80.2923 85.4911 79.781 87.1013C79.2698 88.6962 78.7345 90.2228 78.1753 91.681H74.7481C73.9013 89.2354 73.1104 86.6532 72.3755 83.9342C71.6565 81.2152 71.0174 78.5342 70.4582 75.8911H74.5085C74.6682 76.7873 74.844 77.7215 75.0357 78.6937C75.2275 79.6506 75.4272 80.6152 75.6349 81.5873C75.8426 82.5595 76.0503 83.5013 76.258 84.4127C76.4817 85.3241 76.7054 86.1671 76.9291 86.9418C77.2167 86.1975 77.4963 85.4076 77.7679 84.5722C78.0395 83.7367 78.3031 82.9013 78.5588 82.0658C78.8144 81.2304 79.0461 80.4253 79.2538 79.6506C79.4775 78.8759 79.6772 78.1848 79.8529 77.5772H83.0405Z" fill="url(#paint3_linear)"/>
<path d="M92.9874 85.7797C92.9874 84.7165 93.1551 83.7899 93.4907 83C93.8422 82.1949 94.2975 81.5266 94.8567 80.9949C95.416 80.4633 96.0551 80.0608 96.774 79.7873C97.509 79.5139 98.2599 79.3772 99.0269 79.3772C100.816 79.3772 102.23 79.9013 103.269 80.9494C104.307 81.9823 104.827 83.5089 104.827 85.5291C104.827 85.7266 104.819 85.9468 104.803 86.1899C104.787 86.4177 104.771 86.6228 104.755 86.8051H96.6542C96.7341 87.5038 97.0776 88.0582 97.6848 88.4684C98.2919 88.8785 99.1068 89.0835 100.129 89.0835C100.784 89.0835 101.423 89.0304 102.047 88.9241C102.686 88.8025 103.205 88.6582 103.604 88.4911L104.084 91.2481C103.892 91.3392 103.636 91.4304 103.317 91.5215C102.997 91.6127 102.638 91.6886 102.238 91.7494C101.855 91.8253 101.439 91.8861 100.992 91.9316C100.545 91.9772 100.097 92 99.65 92C98.5156 92 97.525 91.8405 96.6782 91.5215C95.8474 91.2025 95.1523 90.7696 94.5931 90.2228C94.0499 89.6608 93.6425 89 93.3708 88.2405C93.1152 87.481 92.9874 86.6608 92.9874 85.7797ZM101.376 84.481C101.36 84.1924 101.304 83.9114 101.208 83.638C101.128 83.3646 100.992 83.1215 100.8 82.9089C100.625 82.6962 100.393 82.5215 100.105 82.3848C99.8337 82.2481 99.4902 82.1797 99.0748 82.1797C98.6754 82.1797 98.3318 82.2481 98.0443 82.3848C97.7567 82.5063 97.517 82.6734 97.3253 82.8861C97.1335 83.0987 96.9818 83.3494 96.8699 83.638C96.774 83.9114 96.7021 84.1924 96.6542 84.481H101.376Z" fill="url(#paint4_linear)"/>
<path d="M115.659 85.5975C115.659 83.4101 114.812 82.3165 113.119 82.3165C112.751 82.3165 112.384 82.362 112.016 82.4532C111.665 82.5443 111.377 82.6582 111.153 82.7949V88.9696C111.329 89 111.553 89.0304 111.824 89.0608C112.096 89.0759 112.392 89.0835 112.711 89.0835C113.686 89.0835 114.421 88.7646 114.916 88.1266C115.411 87.4886 115.659 86.6456 115.659 85.5975ZM119.302 85.6886C119.302 86.6456 119.15 87.5114 118.847 88.2861C118.559 89.0608 118.136 89.7215 117.576 90.2684C117.017 90.8152 116.33 91.2405 115.515 91.5443C114.7 91.8329 113.774 91.9772 112.735 91.9772C112.304 91.9772 111.848 91.9544 111.369 91.9089C110.906 91.8785 110.442 91.8329 109.979 91.7722C109.532 91.7114 109.1 91.643 108.685 91.5671C108.269 91.4759 107.902 91.3848 107.582 91.2937V74.5468L111.153 74V79.9696C111.553 79.8025 111.968 79.6734 112.4 79.5823C112.831 79.4911 113.294 79.4456 113.79 79.4456C114.684 79.4456 115.475 79.5975 116.162 79.9013C116.849 80.1899 117.425 80.6076 117.888 81.1544C118.351 81.7013 118.703 82.362 118.942 83.1367C119.182 83.8962 119.302 84.7468 119.302 85.6886Z" fill="url(#paint5_linear)"/>
<path d="M127.271 75.7089C129.748 75.7089 131.649 76.1266 132.975 76.962C134.301 77.7823 134.964 79.1342 134.964 81.0177C134.964 82.9165 134.293 84.2911 132.951 85.1418C131.609 85.9772 129.692 86.3949 127.199 86.3949H126.025V91.681H122.286V76.119C123.101 75.9671 123.964 75.8608 124.874 75.8C125.785 75.7392 126.584 75.7089 127.271 75.7089ZM127.511 78.7392C127.239 78.7392 126.968 78.7468 126.696 78.762C126.44 78.7772 126.217 78.7924 126.025 78.8076V83.3646H127.199C128.493 83.3646 129.468 83.1975 130.123 82.8633C130.778 82.5291 131.106 81.9063 131.106 80.9949C131.106 80.5544 131.018 80.1899 130.842 79.9013C130.682 79.6127 130.443 79.3848 130.123 79.2177C129.819 79.0354 129.444 78.9139 128.997 78.8532C128.549 78.7772 128.054 78.7392 127.511 78.7392Z" fill="url(#paint6_linear)"/>
<path d="M138.488 89.881C138.488 90.5646 138.257 91.0886 137.793 91.4532C137.346 91.8025 136.835 91.9772 136.259 91.9772C135.684 91.9772 135.165 91.8025 134.702 91.4532C134.254 91.0886 134.03 90.5646 134.03 89.881C134.03 89.1975 134.254 88.681 134.702 88.3316C135.165 87.9671 135.684 87.7848 136.259 87.7848C136.835 87.7848 137.346 87.9671 137.793 88.3316C138.257 88.681 138.488 89.1975 138.488 89.881Z" fill="url(#paint7_linear)"/>
<path d="M158.029 91.681C156.958 89.8734 155.8 88.0886 154.553 86.3266C153.307 84.5646 151.981 82.9013 150.575 81.3367V91.681H146.884V75.8911H149.928C150.455 76.3924 151.038 77.0076 151.678 77.7367C152.317 78.4658 152.964 79.2481 153.619 80.0835C154.29 80.9038 154.953 81.762 155.608 82.6582C156.263 83.5392 156.878 84.3899 157.453 85.2101V75.8911H161.168V91.681H158.029Z" fill="url(#paint8_linear)"/>
<path d="M164.161 85.7797C164.161 84.7165 164.328 83.7899 164.664 83C165.015 82.1949 165.471 81.5266 166.03 80.9949C166.589 80.4633 167.228 80.0608 167.947 79.7873C168.682 79.5139 169.433 79.3772 170.2 79.3772C171.99 79.3772 173.404 79.9013 174.442 80.9494C175.481 81.9823 176 83.5089 176 85.5291C176 85.7266 175.992 85.9468 175.976 86.1899C175.96 86.4177 175.944 86.6228 175.928 86.8051H167.827C167.907 87.5038 168.251 88.0582 168.858 88.4684C169.465 88.8785 170.28 89.0835 171.302 89.0835C171.958 89.0835 172.597 89.0304 173.22 88.9241C173.859 88.8025 174.378 88.6582 174.778 88.4911L175.257 91.2481C175.065 91.3392 174.81 91.4304 174.49 91.5215C174.17 91.6127 173.811 91.6886 173.412 91.7494C173.028 91.8253 172.613 91.8861 172.165 91.9316C171.718 91.9772 171.271 92 170.823 92C169.689 92 168.698 91.8405 167.851 91.5215C167.021 91.2025 166.326 90.7696 165.766 90.2228C165.223 89.6608 164.816 89 164.544 88.2405C164.288 87.481 164.161 86.6608 164.161 85.7797ZM172.549 84.481C172.533 84.1924 172.477 83.9114 172.381 83.638C172.301 83.3646 172.165 83.1215 171.974 82.9089C171.798 82.6962 171.566 82.5215 171.279 82.3848C171.007 82.2481 170.663 82.1797 170.248 82.1797C169.849 82.1797 169.505 82.2481 169.217 82.3848C168.93 82.5063 168.69 82.6734 168.498 82.8861C168.307 83.0987 168.155 83.3494 168.043 83.638C167.947 83.9114 167.875 84.1924 167.827 84.481H172.549Z" fill="url(#paint9_linear)"/>
<path d="M178.636 76.7114L182.207 76.1646V79.6962H186.497V82.5215H182.207V86.7367C182.207 87.4506 182.335 88.0203 182.59 88.4456C182.862 88.8709 183.397 89.0835 184.196 89.0835C184.579 89.0835 184.971 89.0532 185.37 88.9924C185.786 88.9165 186.161 88.8177 186.497 88.6962L187 91.3392C186.569 91.5063 186.089 91.6506 185.562 91.7722C185.035 91.8937 184.388 91.9544 183.621 91.9544C182.646 91.9544 181.839 91.8329 181.2 91.5899C180.561 91.3316 180.05 90.9823 179.666 90.5418C179.283 90.0861 179.011 89.5392 178.851 88.9013C178.708 88.2633 178.636 87.557 178.636 86.7823V76.7114Z" fill="url(#paint10_linear)"/>
</g>
<defs>
<filter id="filter0_f" x="35" y="72" width="154" height="22" filterUnits="userSpaceOnUse" color-interpolation-filters="sRGB">
<feFlood flood-opacity="0" result="BackgroundImageFix"/>
<feBlend mode="normal" in="SourceGraphic" in2="BackgroundImageFix" result="shape"/>
<feGaussianBlur stdDeviation="1" result="effect1_foregroundBlur"/>
</filter>
<linearGradient id="paint0_linear" x1="107.9" y1="25.5823" x2="107.9" y2="92.038" gradientUnits="userSpaceOnUse">
<stop stop-color="#240046"/>
<stop offset="0.72476" stop-opacity="0.4"/>
<stop offset="0.966981" stop-color="#3C096C" stop-opacity="0"/>
</linearGradient>
<linearGradient id="paint1_linear" x1="107.9" y1="25.5823" x2="107.9" y2="92.038" gradientUnits="userSpaceOnUse">
<stop stop-color="#240046"/>
<stop offset="0.72476" stop-opacity="0.4"/>
<stop offset="0.966981" stop-color="#3C096C" stop-opacity="0"/>
</linearGradient>
<linearGradient id="paint2_linear" x1="107.9" y1="25.5823" x2="107.9" y2="92.038" gradientUnits="userSpaceOnUse">
<stop stop-color="#240046"/>
<stop offset="0.72476" stop-opacity="0.4"/>
<stop offset="0.966981" stop-color="#3C096C" stop-opacity="0"/>
</linearGradient>
<linearGradient id="paint3_linear" x1="107.9" y1="25.5823" x2="107.9" y2="92.038" gradientUnits="userSpaceOnUse">
<stop stop-color="#240046"/>
<stop offset="0.72476" stop-opacity="0.4"/>
<stop offset="0.966981" stop-color="#3C096C" stop-opacity="0"/>
</linearGradient>
<linearGradient id="paint4_linear" x1="107.9" y1="25.5823" x2="107.9" y2="92.038" gradientUnits="userSpaceOnUse">
<stop stop-color="#240046"/>
<stop offset="0.72476" stop-opacity="0.4"/>
<stop offset="0.966981" stop-color="#3C096C" stop-opacity="0"/>
</linearGradient>
<linearGradient id="paint5_linear" x1="107.9" y1="25.5823" x2="107.9" y2="92.038" gradientUnits="userSpaceOnUse">
<stop stop-color="#240046"/>
<stop offset="0.72476" stop-opacity="0.4"/>
<stop offset="0.966981" stop-color="#3C096C" stop-opacity="0"/>
</linearGradient>
<linearGradient id="paint6_linear" x1="107.9" y1="25.5823" x2="107.9" y2="92.038" gradientUnits="userSpaceOnUse">
<stop stop-color="#240046"/>
<stop offset="0.72476" stop-opacity="0.4"/>
<stop offset="0.966981" stop-color="#3C096C" stop-opacity="0"/>
</linearGradient>
<linearGradient id="paint7_linear" x1="107.9" y1="25.5823" x2="107.9" y2="92.038" gradientUnits="userSpaceOnUse">
<stop stop-color="#240046"/>
<stop offset="0.72476" stop-opacity="0.4"/>
<stop offset="0.966981" stop-color="#3C096C" stop-opacity="0"/>
</linearGradient>
<linearGradient id="paint8_linear" x1="107.9" y1="25.5823" x2="107.9" y2="92.038" gradientUnits="userSpaceOnUse">
<stop stop-color="#240046"/>
<stop offset="0.72476" stop-opacity="0.4"/>
<stop offset="0.966981" stop-color="#3C096C" stop-opacity="0"/>
</linearGradient>
<linearGradient id="paint9_linear" x1="107.9" y1="25.5823" x2="107.9" y2="92.038" gradientUnits="userSpaceOnUse">
<stop stop-color="#240046"/>
<stop offset="0.72476" stop-opacity="0.4"/>
<stop offset="0.966981" stop-color="#3C096C" stop-opacity="0"/>
</linearGradient>
<linearGradient id="paint10_linear" x1="107.9" y1="25.5823" x2="107.9" y2="92.038" gradientUnits="userSpaceOnUse">
<stop stop-color="#240046"/>
<stop offset="0.72476" stop-opacity="0.4"/>
<stop offset="0.966981" stop-color="#3C096C" stop-opacity="0"/>
</linearGradient>
</defs>
</svg>
