<svg width="90" height="90" viewBox="0 0 90 90" fill="none" xmlns="http://www.w3.org/2000/svg">
<g filter="url(#filter0_d)">
<path fill-rule="evenodd" clip-rule="evenodd" d="M71.0553 4H25.5V4.46667C25.5 6.01306 24.2528 7.26667 22.7143 7.26667H21.7857C20.2472 7.26667 19 5.5 19 4H18.9448C14.0128 4 10 8.04519 10 13.0176V55.7406L25.0314 43.1554C27.0557 41.4277 30.0029 41.4124 32.0447 43.1217L39.098 49.0263L57.9662 29.9754C59.0571 28.8743 60.5681 28.2889 62.1081 28.368C63.638 28.4471 65.07 29.1752 66.0428 30.3667L79.9999 46.6423V13.0176C80.0001 8.04519 75.9873 4 71.0553 4ZM25 10.7857C25 9.24721 26.2472 8 27.7857 8H28.7143C30.2528 8 31.5 9.24721 31.5 10.7857V11.7143C31.5 13.2528 30.2528 14.5 28.7143 14.5H27.7857C26.2472 14.5 25 13.2528 25 11.7143V10.7857ZM20.7857 16C19.2472 16 18 17.2472 18 18.7857V19.7143C18 21.2528 19.2472 22.5 20.7857 22.5H21.7143C23.2528 22.5 24.5 21.2528 24.5 19.7143V18.7857C24.5 17.2472 23.2528 16 21.7143 16H20.7857ZM25 23.7857C25 22.2472 26.2472 21 27.7857 21H28.7143C30.2528 21 31.5 22.2472 31.5 23.7857V24.7143C31.5 26.2528 30.2528 27.5 28.7143 27.5H27.7857C26.2472 27.5 25 26.2528 25 24.7143V23.7857ZM20.7857 28C19.2472 28 18 29.2472 18 30.7857V31.7143C18 33.2528 19.2472 34.5 20.7857 34.5H21.7143C23.2528 34.5 24.5 33.2528 24.5 31.7143V30.7857C24.5 29.2472 23.2528 28 21.7143 28H20.7857ZM27.7857 35C26.2472 35 25 36.2472 25 37.7857V38.7143C25 40.2528 26.2472 41.5 27.7857 41.5H28.7143C30.2528 41.5 31.5 40.2528 31.5 38.7143V37.7857C31.5 36.2472 30.2528 35 28.7143 35H27.7857Z" fill="url(#paint0_linear)"/>
<path d="M23.6262 60.4666H30.0729C30.7686 60.4666 31.3715 61.0266 31.4179 61.7733L31.4642 62.7066C31.5106 63.5 30.8613 64.2 30.0729 64.2H23.5335C22.6986 64.2 22.0493 63.5 22.1421 62.66L22.2348 61.7266C22.2812 61.0266 22.8842 60.4666 23.6262 60.4666Z" fill="url(#paint1_linear)"/>
<path fill-rule="evenodd" clip-rule="evenodd" d="M62.9055 32.495C62.8915 32.4788 62.8781 32.4626 62.8647 32.4459C62.5389 32.0415 62.1185 31.9618 61.897 31.9503C61.6755 31.9385 61.2493 31.9748 60.8842 32.3433L40.6871 52.7362C39.9341 53.4963 38.7308 53.5527 37.9112 52.8666L29.4108 45.7507C28.9106 45.3318 28.1881 45.3364 27.6934 45.761C27.6871 45.7664 27.6809 45.7716 27.6743 45.777L10 60.5749V64.9824C10 69.9548 14.0126 74 18.9448 74H71.0552C75.9874 74 80 69.9547 80 64.9824V52.4293L62.9055 32.495ZM23.5428 51.6C21.9546 51.6 20.6316 52.8173 20.4997 54.4V55.1L20.2664 59.0666L19.9856 63.5586C19.8849 65.1706 21.1651 66.5333 22.7802 66.5333H30.3526C31.9677 66.5333 33.2479 65.1706 33.1471 63.5586L32.8664 59.0666L32.633 55.1V54.4C32.5012 52.8173 31.1781 51.6 29.59 51.6H23.5428Z" fill="url(#paint2_linear)"/>
</g>
<defs>
<filter id="filter0_d" x="0" y="0" width="90" height="90" filterUnits="userSpaceOnUse" color-interpolation-filters="sRGB">
<feFlood flood-opacity="0" result="BackgroundImageFix"/>
<feColorMatrix in="SourceAlpha" type="matrix" values="0 0 0 0 0 0 0 0 0 0 0 0 0 0 0 0 0 0 127 0" result="hardAlpha"/>
<feOffset dy="6"/>
<feGaussianBlur stdDeviation="5"/>
<feComposite in2="hardAlpha" operator="out"/>
<feColorMatrix type="matrix" values="0 0 0 0 0.243137 0 0 0 0 0.12549 0 0 0 0 0.560784 0 0 0 0.1 0"/>
<feBlend mode="normal" in2="BackgroundImageFix" result="effect1_dropShadow"/>
<feBlend mode="normal" in="SourceGraphic" in2="effect1_dropShadow" result="shape"/>
</filter>
<linearGradient id="paint0_linear" x1="61" y1="-17.5" x2="40.5" y2="88" gradientUnits="userSpaceOnUse">
<stop stop-color="#9D4EDD"/>
<stop offset="0.216607" stop-color="#9D4EDD"/>
<stop offset="1" stop-color="#03045E"/>
</linearGradient>
<linearGradient id="paint1_linear" x1="61" y1="-17.5" x2="40.5" y2="88" gradientUnits="userSpaceOnUse">
<stop stop-color="#9D4EDD"/>
<stop offset="0.216607" stop-color="#9D4EDD"/>
<stop offset="1" stop-color="#03045E"/>
</linearGradient>
<linearGradient id="paint2_linear" x1="61" y1="-17.5" x2="40.5" y2="88" gradientUnits="userSpaceOnUse">
<stop stop-color="#9D4EDD"/>
<stop offset="0.216607" stop-color="#9D4EDD"/>
<stop offset="1" stop-color="#03045E"/>
</linearGradient>
</defs>
</svg>
