<svg width="208" height="99" viewBox="0 0 208 99" fill="none" xmlns="http://www.w3.org/2000/svg">
<g filter="url(#filter0_d)">
<path fill-rule="evenodd" clip-rule="evenodd" d="M25.5 5H71.0553C75.9873 5 80.0001 9.04519 79.9999 14.0176V47.6423L66.0428 31.3667C65.07 30.1752 63.638 29.4471 62.1081 29.368C60.5681 29.2889 59.0571 29.8743 57.9662 30.9754L39.098 50.0263L32.0447 44.1217C30.0029 42.4124 27.0557 42.4277 25.0314 44.1554L10 56.7406V14.0176C10 9.04519 14.0128 5 18.9448 5H19C19 6.5464 20.2472 8.26667 21.7857 8.26667H22.7143C24.2528 8.26667 25.5 7.01306 25.5 5.46667V5ZM27.7857 9C26.2472 9 25 10.2536 25 11.8V12.7333C25 14.2797 26.2472 15.5333 27.7857 15.5333H28.7143C30.2528 15.5333 31.5 14.2797 31.5 12.7333V11.8C31.5 10.2536 30.2528 9 28.7143 9H27.7857ZM18 19.8C18 18.2536 19.2472 17 20.7857 17H21.7143C23.2528 17 24.5 18.2536 24.5 19.8V20.7333C24.5 22.2797 23.2528 23.5333 21.7143 23.5333H20.7857C19.2472 23.5333 18 22.2797 18 20.7333V19.8ZM27.7857 22C26.2472 22 25 23.2472 25 24.7857V25.7143C25 27.2528 26.2472 28.5 27.7857 28.5H28.7143C30.2528 28.5 31.5 27.2528 31.5 25.7143V24.7857C31.5 23.2472 30.2528 22 28.7143 22H27.7857ZM18 31.7857C18 30.2472 19.2472 29 20.7857 29H21.7143C23.2528 29 24.5 30.2472 24.5 31.7857V32.7143C24.5 34.2528 23.2528 35.5 21.7143 35.5H20.7857C19.2472 35.5 18 34.2528 18 32.7143V31.7857ZM25 38.7857C25 37.2472 26.2472 36 27.7857 36H28.7143C30.2528 36 31.5 37.2472 31.5 38.7857V39.7143C31.5 41.2528 30.2528 42.5 28.7143 42.5H27.7857C26.2472 42.5 25 41.2528 25 39.7143V38.7857ZM62.8647 33.4459C62.8781 33.4626 62.8915 33.4788 62.9055 33.495L80 53.4293V65.9824C80 70.9547 75.9874 75 71.0552 75H18.9448C14.0126 75 10 70.9548 10 65.9824V61.5749L27.689 46.7647L27.6934 46.761C28.1881 46.3364 28.9106 46.3318 29.4108 46.7507L37.9112 53.8666C38.7308 54.5527 39.9341 54.4963 40.6871 53.7362L60.8842 33.3433C61.2493 32.9748 61.6755 32.9385 61.897 32.9503C62.1185 32.9618 62.5389 33.0415 62.8647 33.4459ZM20.4997 55.4C20.6316 53.8173 21.9546 52.6 23.5428 52.6H29.59C31.1781 52.6 32.5012 53.8173 32.633 55.4V56.1L32.8664 60.0666L33.1471 64.5586C33.2479 66.1706 31.9677 67.5333 30.3526 67.5333H22.7802C21.1651 67.5333 19.8849 66.1706 19.9856 64.5586L20.2664 60.0666L20.4997 56.1V55.4ZM30.0729 61.4666H23.6262C22.8842 61.4666 22.2812 62.0266 22.2348 62.7266L22.1421 63.66C22.0493 64.5 22.6986 65.2 23.5335 65.2H30.0729C30.8613 65.2 31.5106 64.5 31.4642 63.7066L31.4179 62.7733C31.3715 62.0266 30.7686 61.4666 30.0729 61.4666ZM72.7649 61.76C74.4609 61.76 75.3089 62.912 75.3089 65.216C75.3089 66.32 75.0609 67.208 74.5649 67.88C74.0689 68.552 73.3329 68.888 72.3569 68.888C72.0369 68.888 71.7409 68.88 71.4689 68.864C71.1969 68.832 70.9729 68.8 70.7969 68.768V62.264C71.0209 62.12 71.3089 62 71.6609 61.904C72.0289 61.808 72.3969 61.76 72.7649 61.76ZM78.5009 68.048C78.8049 67.232 78.9569 66.32 78.9569 65.312C78.9569 64.32 78.8369 63.424 78.5969 62.624C78.3569 61.808 78.0049 61.112 77.5409 60.536C77.0769 59.96 76.5009 59.52 75.8129 59.216C75.1249 58.896 74.3329 58.736 73.4369 58.736C72.9409 58.736 72.4769 58.784 72.0449 58.88C71.6129 58.976 71.1969 59.112 70.7969 59.288V53L67.2209 53.576V71.216C67.5409 71.312 67.9089 71.408 68.3249 71.504C68.7409 71.584 69.1729 71.656 69.6209 71.72C70.0849 71.784 70.5489 71.832 71.0129 71.864C71.4929 71.912 71.9489 71.936 72.3809 71.936C73.4209 71.936 74.3489 71.784 75.1649 71.48C75.9809 71.16 76.6689 70.712 77.2289 70.136C77.7889 69.56 78.2129 68.864 78.5009 68.048ZM63.8594 71.624H60.2834V59H63.8594V71.624ZM64.1954 55.352C64.1954 56.008 63.9794 56.528 63.5474 56.912C63.1314 57.28 62.6354 57.464 62.0594 57.464C61.4834 57.464 60.9794 57.28 60.5474 56.912C60.1314 56.528 59.9234 56.008 59.9234 55.352C59.9234 54.696 60.1314 54.184 60.5474 53.816C60.9794 53.432 61.4834 53.24 62.0594 53.24C62.6354 53.24 63.1314 53.432 63.5474 53.816C63.9794 54.184 64.1954 54.696 64.1954 55.352ZM58.112 68.408V71.624H47V54.992H50.744V68.408H58.112ZM93.1053 56.768C93.2973 57.424 93.5053 58.168 93.7293 59C93.9693 59.816 94.2173 60.664 94.4733 61.544L95.2893 64.184C95.5613 65.064 95.8253 65.88 96.0813 66.632C96.2893 65.816 96.4973 64.928 96.7053 63.968C96.9293 63.008 97.1373 62.016 97.3293 60.992C97.5213 59.968 97.7053 58.952 97.8813 57.944C98.0733 56.92 98.2493 55.936 98.4093 54.992H102.297C101.737 57.776 101.089 60.6 100.353 63.464C99.6333 66.328 98.8493 69.048 98.0013 71.624H94.5693C94.0093 70.088 93.4653 68.48 92.9373 66.8C92.4093 65.104 91.8893 63.408 91.3773 61.712L89.8413 66.8C89.3293 68.48 88.7933 70.088 88.2333 71.624H84.8013C83.9533 69.048 83.1613 66.328 82.4253 63.464C81.7053 60.6 81.0653 57.776 80.5053 54.992H84.5613C84.7213 55.936 84.8973 56.92 85.0893 57.944C85.2813 58.952 85.4813 59.968 85.6893 60.992C85.8973 62.016 86.1053 63.008 86.3133 63.968C86.5373 64.928 86.7613 65.816 86.9853 66.632C87.2733 65.848 87.5533 65.016 87.8253 64.136C88.0973 63.256 88.3613 62.376 88.6173 61.496C88.8733 60.616 89.1053 59.768 89.3133 58.952C89.5373 58.136 89.7373 57.408 89.9133 56.768H93.1053ZM103.57 62.48C103.234 63.312 103.066 64.288 103.066 65.408C103.066 66.336 103.194 67.2 103.45 68C103.722 68.8 104.13 69.496 104.674 70.088C105.234 70.664 105.93 71.12 106.762 71.456C107.61 71.792 108.602 71.96 109.738 71.96C110.186 71.96 110.634 71.936 111.082 71.888C111.53 71.84 111.946 71.776 112.33 71.696C112.73 71.632 113.09 71.552 113.41 71.456C113.73 71.36 113.986 71.264 114.178 71.168L113.698 68.264C113.298 68.44 112.778 68.592 112.138 68.72C111.514 68.832 110.874 68.888 110.218 68.888C109.194 68.888 108.378 68.672 107.77 68.24C107.162 67.808 106.818 67.224 106.738 66.488H114.85C114.866 66.296 114.882 66.08 114.898 65.84C114.914 65.584 114.922 65.352 114.922 65.144C114.922 63.016 114.402 61.408 113.362 60.32C112.322 59.216 110.906 58.664 109.114 58.664C108.346 58.664 107.594 58.808 106.858 59.096C106.138 59.384 105.498 59.808 104.938 60.368C104.378 60.928 103.922 61.632 103.57 62.48ZM111.298 63.152C111.394 63.44 111.45 63.736 111.466 64.04H106.738C106.786 63.736 106.858 63.44 106.954 63.152C107.066 62.848 107.218 62.584 107.41 62.36C107.602 62.136 107.842 61.96 108.13 61.832C108.418 61.688 108.762 61.616 109.162 61.616C109.578 61.616 109.922 61.688 110.194 61.832C110.482 61.976 110.714 62.16 110.89 62.384C111.082 62.608 111.218 62.864 111.298 63.152ZM123.226 61.76C122.858 61.76 122.49 61.808 122.122 61.904C121.77 62 121.482 62.12 121.258 62.264V68.768C121.434 68.8 121.658 68.832 121.93 68.864C122.202 68.88 122.498 68.888 122.818 68.888C123.794 68.888 124.53 68.552 125.026 67.88C125.522 67.208 125.77 66.32 125.77 65.216C125.77 62.912 124.922 61.76 123.226 61.76ZM129.418 65.312C129.418 66.32 129.266 67.232 128.962 68.048C128.674 68.864 128.25 69.56 127.69 70.136C127.13 70.712 126.442 71.16 125.626 71.48C124.81 71.784 123.882 71.936 122.842 71.936C122.41 71.936 121.954 71.912 121.474 71.864C121.01 71.832 120.546 71.784 120.082 71.72C119.634 71.656 119.202 71.584 118.786 71.504C118.37 71.408 118.002 71.312 117.682 71.216V53.576L121.258 53V59.288C121.658 59.112 122.074 58.976 122.506 58.88C122.938 58.784 123.402 58.736 123.898 58.736C124.794 58.736 125.586 58.896 126.274 59.216C126.962 59.52 127.538 59.96 128.002 60.536C128.466 61.112 128.818 61.808 129.058 62.624C129.298 63.424 129.418 64.32 129.418 65.312ZM143.11 56.12C141.782 55.24 139.878 54.8 137.398 54.8C136.71 54.8 135.91 54.832 134.998 54.896C134.086 54.96 133.222 55.072 132.406 55.232V71.624H136.15V66.056H137.326C139.822 66.056 141.742 65.616 143.086 64.736C144.43 63.84 145.102 62.392 145.102 60.392C145.102 58.408 144.438 56.984 143.11 56.12ZM136.822 58.016C137.094 58 137.366 57.992 137.638 57.992C138.182 57.992 138.678 58.032 139.126 58.112C139.574 58.176 139.95 58.304 140.254 58.496C140.574 58.672 140.814 58.912 140.974 59.216C141.15 59.52 141.238 59.904 141.238 60.368C141.238 61.328 140.91 61.984 140.254 62.336C139.598 62.688 138.622 62.864 137.326 62.864H136.15V58.064C136.342 58.048 136.566 58.032 136.822 58.016ZM148.631 69.728C148.631 70.448 148.399 71 147.935 71.384C147.487 71.752 146.975 71.936 146.399 71.936C145.823 71.936 145.303 71.752 144.839 71.384C144.391 71 144.167 70.448 144.167 69.728C144.167 69.008 144.391 68.464 144.839 68.096C145.303 67.712 145.823 67.52 146.399 67.52C146.975 67.52 147.487 67.712 147.935 68.096C148.399 68.464 148.631 69.008 148.631 69.728ZM164.719 65.984C165.967 67.84 167.127 69.72 168.199 71.624H171.343V54.992H167.623V64.808C167.047 63.944 166.431 63.048 165.775 62.12C165.119 61.176 164.455 60.272 163.783 59.408C163.127 58.528 162.479 57.704 161.839 56.936C161.199 56.168 160.615 55.52 160.087 54.992H157.039V71.624H160.735V60.728C162.143 62.376 163.471 64.128 164.719 65.984ZM174.34 65.408C174.34 64.288 174.508 63.312 174.844 62.48C175.196 61.632 175.652 60.928 176.212 60.368C176.772 59.808 177.412 59.384 178.132 59.096C178.868 58.808 179.62 58.664 180.388 58.664C182.18 58.664 183.596 59.216 184.636 60.32C185.676 61.408 186.196 63.016 186.196 65.144C186.196 65.352 186.188 65.584 186.172 65.84C186.156 66.08 186.14 66.296 186.124 66.488H178.012C178.092 67.224 178.436 67.808 179.044 68.24C179.652 68.672 180.468 68.888 181.492 68.888C182.148 68.888 182.788 68.832 183.412 68.72C184.052 68.592 184.572 68.44 184.972 68.264L185.452 71.168C185.26 71.264 185.004 71.36 184.684 71.456C184.364 71.552 184.004 71.632 183.604 71.696C183.22 71.776 182.804 71.84 182.356 71.888C181.908 71.936 181.46 71.96 181.012 71.96C179.876 71.96 178.884 71.792 178.036 71.456C177.204 71.12 176.508 70.664 175.948 70.088C175.404 69.496 174.996 68.8 174.724 68C174.468 67.2 174.34 66.336 174.34 65.408ZM182.74 64.04C182.724 63.736 182.668 63.44 182.572 63.152C182.492 62.864 182.356 62.608 182.164 62.384C181.988 62.16 181.756 61.976 181.468 61.832C181.196 61.688 180.852 61.616 180.436 61.616C180.036 61.616 179.692 61.688 179.404 61.832C179.116 61.96 178.876 62.136 178.684 62.36C178.492 62.584 178.34 62.848 178.228 63.152C178.132 63.44 178.06 63.736 178.012 64.04H182.74ZM192.411 55.28L188.835 55.856V66.464C188.835 67.28 188.907 68.024 189.051 68.696C189.211 69.368 189.483 69.944 189.867 70.424C190.251 70.888 190.763 71.256 191.403 71.528C192.043 71.784 192.851 71.912 193.827 71.912C194.595 71.912 195.243 71.848 195.771 71.72C196.299 71.592 196.779 71.44 197.211 71.264L196.707 68.48C196.371 68.608 195.995 68.712 195.579 68.792C195.179 68.856 194.787 68.888 194.403 68.888C193.603 68.888 193.067 68.664 192.795 68.216C192.539 67.768 192.411 67.168 192.411 66.416V61.976H196.707V59H192.411V55.28Z" fill="url(#paint0_linear)"/>
</g>
<g filter="url(#filter1_f)">
<path d="M58.0964 93.6278V96.681H47V80.8911H50.7387V93.6278H58.0964Z" fill="url(#paint1_linear)"/>
<path d="M63.8357 96.681H60.2648V84.6962H63.8357V96.681ZM64.1712 81.2329C64.1712 81.8557 63.9556 82.3494 63.5242 82.7139C63.1087 83.0633 62.6134 83.238 62.0383 83.238C61.4631 83.238 60.9598 83.0633 60.5284 82.7139C60.113 82.3494 59.9053 81.8557 59.9053 81.2329C59.9053 80.6101 60.113 80.1241 60.5284 79.7747C60.9598 79.4101 61.4631 79.2278 62.0383 79.2278C62.6134 79.2278 63.1087 79.4101 63.5242 79.7747C63.9556 80.1241 64.1712 80.6101 64.1712 81.2329Z" fill="url(#paint2_linear)"/>
<path d="M75.2691 90.5975C75.2691 88.4101 74.4223 87.3165 72.7287 87.3165C72.3612 87.3165 71.9937 87.362 71.6262 87.4532C71.2747 87.5443 70.9871 87.6582 70.7635 87.7949V93.9696C70.9392 94 71.1629 94.0304 71.4345 94.0608C71.7061 94.0759 72.0017 94.0835 72.3213 94.0835C73.2959 94.0835 74.0309 93.7646 74.5262 93.1266C75.0215 92.4886 75.2691 91.6456 75.2691 90.5975ZM78.912 90.6886C78.912 91.6456 78.7602 92.5114 78.4566 93.2861C78.169 94.0608 77.7456 94.7215 77.1864 95.2684C76.6272 95.8152 75.9402 96.2405 75.1253 96.5443C74.3105 96.8329 73.3838 96.9772 72.3452 96.9772C71.9138 96.9772 71.4585 96.9544 70.9792 96.9089C70.5158 96.8785 70.0525 96.8329 69.5891 96.7722C69.1417 96.7114 68.7104 96.643 68.2949 96.5671C67.8795 96.4759 67.512 96.3848 67.1925 96.2937V79.5468L70.7635 79V84.9696C71.1629 84.8025 71.5783 84.6734 72.0097 84.5823C72.4411 84.4911 72.9044 84.4456 73.3997 84.4456C74.2945 84.4456 75.0854 84.5975 75.7724 84.9013C76.4594 85.1899 77.0346 85.6076 77.498 86.1544C77.9613 86.7013 78.3128 87.362 78.5525 88.1367C78.7921 88.8962 78.912 89.7468 78.912 90.6886Z" fill="url(#paint3_linear)"/>
<path d="M93.0405 82.5772C93.2322 83.2 93.4399 83.9063 93.6636 84.6962C93.9032 85.4709 94.1509 86.2759 94.4065 87.1114C94.6781 87.9468 94.9498 88.7823 95.2214 89.6177C95.493 90.4532 95.7566 91.2278 96.0123 91.9418C96.22 91.1671 96.4277 90.324 96.6354 89.4127C96.8591 88.5013 97.0668 87.5595 97.2585 86.5873C97.4502 85.6152 97.634 84.6506 97.8097 83.6937C98.0015 82.7215 98.1772 81.7873 98.337 80.8911H102.22C101.66 83.5342 101.013 86.2152 100.278 88.9342C99.5593 91.6532 98.7764 94.2354 97.9296 96.681H94.5024C93.9432 95.2228 93.3999 93.6962 92.8727 92.1013C92.3454 90.4911 91.8262 88.881 91.3149 87.2709C90.8036 88.881 90.2923 90.4911 89.781 92.1013C89.2698 93.6962 88.7345 95.2228 88.1753 96.681H84.7481C83.9013 94.2354 83.1104 91.6532 82.3755 88.9342C81.6565 86.2152 81.0174 83.5342 80.4582 80.8911H84.5085C84.6682 81.7873 84.844 82.7215 85.0357 83.6937C85.2275 84.6506 85.4272 85.6152 85.6349 86.5873C85.8426 87.5595 86.0503 88.5013 86.258 89.4127C86.4817 90.324 86.7054 91.1671 86.9291 91.9418C87.2167 91.1975 87.4963 90.4076 87.7679 89.5722C88.0395 88.7367 88.3031 87.9013 88.5588 87.0658C88.8144 86.2304 89.0461 85.4253 89.2538 84.6506C89.4775 83.8759 89.6772 83.1848 89.8529 82.5772H93.0405Z" fill="url(#paint4_linear)"/>
<path d="M102.987 90.7797C102.987 89.7165 103.155 88.7899 103.491 88C103.842 87.1949 104.298 86.5266 104.857 85.9949C105.416 85.4633 106.055 85.0608 106.774 84.7873C107.509 84.5139 108.26 84.3772 109.027 84.3772C110.816 84.3772 112.23 84.9013 113.269 85.9494C114.307 86.9823 114.827 88.5089 114.827 90.5291C114.827 90.7266 114.819 90.9468 114.803 91.1899C114.787 91.4177 114.771 91.6228 114.755 91.8051H106.654C106.734 92.5038 107.078 93.0582 107.685 93.4684C108.292 93.8785 109.107 94.0835 110.129 94.0835C110.784 94.0835 111.423 94.0304 112.047 93.9241C112.686 93.8025 113.205 93.6582 113.604 93.4911L114.084 96.2481C113.892 96.3392 113.636 96.4304 113.317 96.5215C112.997 96.6127 112.638 96.6886 112.238 96.7494C111.855 96.8253 111.439 96.8861 110.992 96.9316C110.545 96.9772 110.097 97 109.65 97C108.516 97 107.525 96.8405 106.678 96.5215C105.847 96.2025 105.152 95.7696 104.593 95.2228C104.05 94.6608 103.642 94 103.371 93.2405C103.115 92.481 102.987 91.6608 102.987 90.7797ZM111.376 89.481C111.36 89.1924 111.304 88.9114 111.208 88.638C111.128 88.3646 110.992 88.1215 110.8 87.9089C110.625 87.6962 110.393 87.5215 110.105 87.3848C109.834 87.2481 109.49 87.1797 109.075 87.1797C108.675 87.1797 108.332 87.2481 108.044 87.3848C107.757 87.5063 107.517 87.6734 107.325 87.8861C107.134 88.0987 106.982 88.3494 106.87 88.638C106.774 88.9114 106.702 89.1924 106.654 89.481H111.376Z" fill="url(#paint5_linear)"/>
<path d="M125.659 90.5975C125.659 88.4101 124.812 87.3165 123.119 87.3165C122.751 87.3165 122.384 87.362 122.016 87.4532C121.665 87.5443 121.377 87.6582 121.153 87.7949V93.9696C121.329 94 121.553 94.0304 121.824 94.0608C122.096 94.0759 122.392 94.0835 122.711 94.0835C123.686 94.0835 124.421 93.7646 124.916 93.1266C125.411 92.4886 125.659 91.6456 125.659 90.5975ZM129.302 90.6886C129.302 91.6456 129.15 92.5114 128.847 93.2861C128.559 94.0608 128.136 94.7215 127.576 95.2684C127.017 95.8152 126.33 96.2405 125.515 96.5443C124.7 96.8329 123.774 96.9772 122.735 96.9772C122.304 96.9772 121.848 96.9544 121.369 96.9089C120.906 96.8785 120.442 96.8329 119.979 96.7722C119.532 96.7114 119.1 96.643 118.685 96.5671C118.269 96.4759 117.902 96.3848 117.582 96.2937V79.5468L121.153 79V84.9696C121.553 84.8025 121.968 84.6734 122.4 84.5823C122.831 84.4911 123.294 84.4456 123.79 84.4456C124.684 84.4456 125.475 84.5975 126.162 84.9013C126.849 85.1899 127.425 85.6076 127.888 86.1544C128.351 86.7013 128.703 87.362 128.942 88.1367C129.182 88.8962 129.302 89.7468 129.302 90.6886Z" fill="url(#paint6_linear)"/>
<path d="M137.271 80.7089C139.748 80.7089 141.649 81.1266 142.975 81.962C144.301 82.7823 144.964 84.1342 144.964 86.0177C144.964 87.9165 144.293 89.2911 142.951 90.1418C141.609 90.9772 139.692 91.3949 137.199 91.3949H136.025V96.681H132.286V81.119C133.101 80.9671 133.964 80.8608 134.874 80.8C135.785 80.7392 136.584 80.7089 137.271 80.7089ZM137.511 83.7392C137.239 83.7392 136.968 83.7468 136.696 83.762C136.44 83.7772 136.217 83.7924 136.025 83.8076V88.3646H137.199C138.493 88.3646 139.468 88.1975 140.123 87.8633C140.778 87.5291 141.106 86.9063 141.106 85.9949C141.106 85.5544 141.018 85.1899 140.842 84.9013C140.682 84.6127 140.443 84.3848 140.123 84.2177C139.819 84.0354 139.444 83.9139 138.997 83.8532C138.549 83.7772 138.054 83.7392 137.511 83.7392Z" fill="url(#paint7_linear)"/>
<path d="M148.488 94.881C148.488 95.5646 148.257 96.0886 147.793 96.4532C147.346 96.8025 146.835 96.9772 146.259 96.9772C145.684 96.9772 145.165 96.8025 144.702 96.4532C144.254 96.0886 144.03 95.5646 144.03 94.881C144.03 94.1975 144.254 93.681 144.702 93.3316C145.165 92.9671 145.684 92.7848 146.259 92.7848C146.835 92.7848 147.346 92.9671 147.793 93.3316C148.257 93.681 148.488 94.1975 148.488 94.881Z" fill="url(#paint8_linear)"/>
<path d="M168.029 96.681C166.958 94.8734 165.8 93.0886 164.553 91.3266C163.307 89.5646 161.981 87.9013 160.575 86.3367V96.681H156.884V80.8911H159.928C160.455 81.3924 161.038 82.0076 161.678 82.7367C162.317 83.4658 162.964 84.2481 163.619 85.0835C164.29 85.9038 164.953 86.762 165.608 87.6582C166.263 88.5392 166.878 89.3899 167.453 90.2101V80.8911H171.168V96.681H168.029Z" fill="url(#paint9_linear)"/>
<path d="M174.161 90.7797C174.161 89.7165 174.328 88.7899 174.664 88C175.015 87.1949 175.471 86.5266 176.03 85.9949C176.589 85.4633 177.228 85.0608 177.947 84.7873C178.682 84.5139 179.433 84.3772 180.2 84.3772C181.99 84.3772 183.404 84.9013 184.442 85.9494C185.481 86.9823 186 88.5089 186 90.5291C186 90.7266 185.992 90.9468 185.976 91.1899C185.96 91.4177 185.944 91.6228 185.928 91.8051H177.827C177.907 92.5038 178.251 93.0582 178.858 93.4684C179.465 93.8785 180.28 94.0835 181.302 94.0835C181.958 94.0835 182.597 94.0304 183.22 93.9241C183.859 93.8025 184.378 93.6582 184.778 93.4911L185.257 96.2481C185.065 96.3392 184.81 96.4304 184.49 96.5215C184.17 96.6127 183.811 96.6886 183.412 96.7494C183.028 96.8253 182.613 96.8861 182.165 96.9316C181.718 96.9772 181.271 97 180.823 97C179.689 97 178.698 96.8405 177.851 96.5215C177.021 96.2025 176.326 95.7696 175.766 95.2228C175.223 94.6608 174.816 94 174.544 93.2405C174.288 92.481 174.161 91.6608 174.161 90.7797ZM182.549 89.481C182.533 89.1924 182.477 88.9114 182.381 88.638C182.301 88.3646 182.165 88.1215 181.974 87.9089C181.798 87.6962 181.566 87.5215 181.279 87.3848C181.007 87.2481 180.663 87.1797 180.248 87.1797C179.849 87.1797 179.505 87.2481 179.217 87.3848C178.93 87.5063 178.69 87.6734 178.498 87.8861C178.307 88.0987 178.155 88.3494 178.043 88.638C177.947 88.9114 177.875 89.1924 177.827 89.481H182.549Z" fill="url(#paint10_linear)"/>
<path d="M188.636 81.7114L192.207 81.1646V84.6962H196.497V87.5215H192.207V91.7367C192.207 92.4506 192.335 93.0203 192.59 93.4456C192.862 93.8709 193.397 94.0835 194.196 94.0835C194.579 94.0835 194.971 94.0532 195.37 93.9924C195.786 93.9165 196.161 93.8177 196.497 93.6962L197 96.3392C196.569 96.5063 196.089 96.6506 195.562 96.7722C195.035 96.8937 194.388 96.9544 193.621 96.9544C192.646 96.9544 191.839 96.8329 191.2 96.5899C190.561 96.3316 190.05 95.9823 189.666 95.5418C189.283 95.0861 189.011 94.5392 188.851 93.9013C188.708 93.2633 188.636 92.557 188.636 91.7823V81.7114Z" fill="url(#paint11_linear)"/>
</g>
<defs>
<filter id="filter0_d" x="0" y="0" width="207.211" height="90" filterUnits="userSpaceOnUse" color-interpolation-filters="sRGB">
<feFlood flood-opacity="0" result="BackgroundImageFix"/>
<feColorMatrix in="SourceAlpha" type="matrix" values="0 0 0 0 0 0 0 0 0 0 0 0 0 0 0 0 0 0 127 0" result="hardAlpha"/>
<feOffset dy="5"/>
<feGaussianBlur stdDeviation="5"/>
<feComposite in2="hardAlpha" operator="out"/>
<feColorMatrix type="matrix" values="0 0 0 0 0.109804 0 0 0 0 0.0627451 0 0 0 0 0.447059 0 0 0 0.15 0"/>
<feBlend mode="normal" in2="BackgroundImageFix" result="effect1_dropShadow"/>
<feBlend mode="normal" in="SourceGraphic" in2="effect1_dropShadow" result="shape"/>
</filter>
<filter id="filter1_f" x="45" y="77" width="154" height="22" filterUnits="userSpaceOnUse" color-interpolation-filters="sRGB">
<feFlood flood-opacity="0" result="BackgroundImageFix"/>
<feBlend mode="normal" in="SourceGraphic" in2="BackgroundImageFix" result="shape"/>
<feGaussianBlur stdDeviation="1" result="effect1_foregroundBlur"/>
</filter>
<linearGradient id="paint0_linear" x1="69.0776" y1="-51.5" x2="52.549" y2="80.3345" gradientUnits="userSpaceOnUse">
<stop stop-color="#9D4EDD"/>
<stop offset="0.457612" stop-color="#9D4EDD"/>
<stop offset="0.995317" stop-color="#03045E"/>
</linearGradient>
<linearGradient id="paint1_linear" x1="117.9" y1="30.5823" x2="117.9" y2="97.038" gradientUnits="userSpaceOnUse">
<stop stop-color="#5A189A"/>
<stop offset="0.72476" stop-color="#A059DB" stop-opacity="0.29"/>
<stop offset="0.966981" stop-color="#C77DFF" stop-opacity="0"/>
</linearGradient>
<linearGradient id="paint2_linear" x1="117.9" y1="30.5823" x2="117.9" y2="97.038" gradientUnits="userSpaceOnUse">
<stop stop-color="#5A189A"/>
<stop offset="0.72476" stop-color="#A059DB" stop-opacity="0.29"/>
<stop offset="0.966981" stop-color="#C77DFF" stop-opacity="0"/>
</linearGradient>
<linearGradient id="paint3_linear" x1="117.9" y1="30.5823" x2="117.9" y2="97.038" gradientUnits="userSpaceOnUse">
<stop stop-color="#5A189A"/>
<stop offset="0.72476" stop-color="#A059DB" stop-opacity="0.29"/>
<stop offset="0.966981" stop-color="#C77DFF" stop-opacity="0"/>
</linearGradient>
<linearGradient id="paint4_linear" x1="117.9" y1="30.5823" x2="117.9" y2="97.038" gradientUnits="userSpaceOnUse">
<stop stop-color="#5A189A"/>
<stop offset="0.72476" stop-color="#A059DB" stop-opacity="0.29"/>
<stop offset="0.966981" stop-color="#C77DFF" stop-opacity="0"/>
</linearGradient>
<linearGradient id="paint5_linear" x1="117.9" y1="30.5823" x2="117.9" y2="97.038" gradientUnits="userSpaceOnUse">
<stop stop-color="#5A189A"/>
<stop offset="0.72476" stop-color="#A059DB" stop-opacity="0.29"/>
<stop offset="0.966981" stop-color="#C77DFF" stop-opacity="0"/>
</linearGradient>
<linearGradient id="paint6_linear" x1="117.9" y1="30.5823" x2="117.9" y2="97.038" gradientUnits="userSpaceOnUse">
<stop stop-color="#5A189A"/>
<stop offset="0.72476" stop-color="#A059DB" stop-opacity="0.29"/>
<stop offset="0.966981" stop-color="#C77DFF" stop-opacity="0"/>
</linearGradient>
<linearGradient id="paint7_linear" x1="117.9" y1="30.5823" x2="117.9" y2="97.038" gradientUnits="userSpaceOnUse">
<stop stop-color="#5A189A"/>
<stop offset="0.72476" stop-color="#A059DB" stop-opacity="0.29"/>
<stop offset="0.966981" stop-color="#C77DFF" stop-opacity="0"/>
</linearGradient>
<linearGradient id="paint8_linear" x1="117.9" y1="30.5823" x2="117.9" y2="97.038" gradientUnits="userSpaceOnUse">
<stop stop-color="#5A189A"/>
<stop offset="0.72476" stop-color="#A059DB" stop-opacity="0.29"/>
<stop offset="0.966981" stop-color="#C77DFF" stop-opacity="0"/>
</linearGradient>
<linearGradient id="paint9_linear" x1="117.9" y1="30.5823" x2="117.9" y2="97.038" gradientUnits="userSpaceOnUse">
<stop stop-color="#5A189A"/>
<stop offset="0.72476" stop-color="#A059DB" stop-opacity="0.29"/>
<stop offset="0.966981" stop-color="#C77DFF" stop-opacity="0"/>
</linearGradient>
<linearGradient id="paint10_linear" x1="117.9" y1="30.5823" x2="117.9" y2="97.038" gradientUnits="userSpaceOnUse">
<stop stop-color="#5A189A"/>
<stop offset="0.72476" stop-color="#A059DB" stop-opacity="0.29"/>
<stop offset="0.966981" stop-color="#C77DFF" stop-opacity="0"/>
</linearGradient>
<linearGradient id="paint11_linear" x1="117.9" y1="30.5823" x2="117.9" y2="97.038" gradientUnits="userSpaceOnUse">
<stop stop-color="#5A189A"/>
<stop offset="0.72476" stop-color="#A059DB" stop-opacity="0.29"/>
<stop offset="0.966981" stop-color="#C77DFF" stop-opacity="0"/>
</linearGradient>
</defs>
</svg>
