<svg width="208" height="98" viewBox="0 0 208 98" fill="none" xmlns="http://www.w3.org/2000/svg">
<g filter="url(#filter0_f)">
<path d="M58.0964 92.6278V95.681H47V79.8911H50.7387V92.6278H58.0964Z" fill="url(#paint0_linear)"/>
<path d="M63.8357 95.681H60.2648V83.6962H63.8357V95.681ZM64.1712 80.2329C64.1712 80.8557 63.9556 81.3494 63.5242 81.7139C63.1087 82.0633 62.6134 82.238 62.0383 82.238C61.4631 82.238 60.9598 82.0633 60.5284 81.7139C60.113 81.3494 59.9053 80.8557 59.9053 80.2329C59.9053 79.6101 60.113 79.1241 60.5284 78.7747C60.9598 78.4101 61.4631 78.2278 62.0383 78.2278C62.6134 78.2278 63.1087 78.4101 63.5242 78.7747C63.9556 79.1241 64.1712 79.6101 64.1712 80.2329Z" fill="url(#paint1_linear)"/>
<path d="M75.2691 89.5975C75.2691 87.4101 74.4223 86.3165 72.7287 86.3165C72.3612 86.3165 71.9937 86.362 71.6262 86.4532C71.2747 86.5443 70.9871 86.6582 70.7635 86.7949V92.9696C70.9392 93 71.1629 93.0304 71.4345 93.0608C71.7061 93.0759 72.0017 93.0835 72.3213 93.0835C73.2959 93.0835 74.0309 92.7646 74.5262 92.1266C75.0215 91.4886 75.2691 90.6456 75.2691 89.5975ZM78.912 89.6886C78.912 90.6456 78.7602 91.5114 78.4566 92.2861C78.169 93.0608 77.7456 93.7215 77.1864 94.2684C76.6272 94.8152 75.9402 95.2405 75.1253 95.5443C74.3105 95.8329 73.3838 95.9772 72.3452 95.9772C71.9138 95.9772 71.4585 95.9544 70.9792 95.9089C70.5158 95.8785 70.0525 95.8329 69.5891 95.7722C69.1417 95.7114 68.7104 95.643 68.2949 95.5671C67.8795 95.4759 67.512 95.3848 67.1925 95.2937V78.5468L70.7635 78V83.9696C71.1629 83.8025 71.5783 83.6734 72.0097 83.5823C72.4411 83.4911 72.9044 83.4456 73.3997 83.4456C74.2945 83.4456 75.0854 83.5975 75.7724 83.9013C76.4594 84.1899 77.0346 84.6076 77.498 85.1544C77.9613 85.7013 78.3128 86.362 78.5525 87.1367C78.7921 87.8962 78.912 88.7468 78.912 89.6886Z" fill="url(#paint2_linear)"/>
<path d="M93.0405 81.5772C93.2322 82.2 93.4399 82.9063 93.6636 83.6962C93.9032 84.4709 94.1509 85.2759 94.4065 86.1114C94.6781 86.9468 94.9498 87.7823 95.2214 88.6177C95.493 89.4532 95.7566 90.2278 96.0123 90.9418C96.22 90.1671 96.4277 89.3241 96.6354 88.4127C96.8591 87.5013 97.0668 86.5595 97.2585 85.5873C97.4502 84.6152 97.634 83.6506 97.8097 82.6937C98.0015 81.7215 98.1772 80.7873 98.337 79.8911H102.22C101.66 82.5342 101.013 85.2152 100.278 87.9342C99.5593 90.6532 98.7764 93.2354 97.9296 95.681H94.5024C93.9432 94.2228 93.3999 92.6962 92.8727 91.1013C92.3454 89.4911 91.8262 87.881 91.3149 86.2709C90.8036 87.881 90.2923 89.4911 89.781 91.1013C89.2698 92.6962 88.7345 94.2228 88.1753 95.681H84.7481C83.9013 93.2354 83.1104 90.6532 82.3755 87.9342C81.6565 85.2152 81.0174 82.5342 80.4582 79.8911H84.5085C84.6682 80.7873 84.844 81.7215 85.0357 82.6937C85.2275 83.6506 85.4272 84.6152 85.6349 85.5873C85.8426 86.5595 86.0503 87.5013 86.258 88.4127C86.4817 89.3241 86.7054 90.1671 86.9291 90.9418C87.2167 90.1975 87.4963 89.4076 87.7679 88.5722C88.0395 87.7367 88.3031 86.9013 88.5588 86.0658C88.8144 85.2304 89.0461 84.4253 89.2538 83.6506C89.4775 82.8759 89.6772 82.1848 89.8529 81.5772H93.0405Z" fill="url(#paint3_linear)"/>
<path d="M102.987 89.7797C102.987 88.7165 103.155 87.7899 103.491 87C103.842 86.1949 104.298 85.5266 104.857 84.9949C105.416 84.4633 106.055 84.0608 106.774 83.7873C107.509 83.5139 108.26 83.3772 109.027 83.3772C110.816 83.3772 112.23 83.9013 113.269 84.9494C114.307 85.9823 114.827 87.5089 114.827 89.5291C114.827 89.7266 114.819 89.9468 114.803 90.1899C114.787 90.4177 114.771 90.6228 114.755 90.8051H106.654C106.734 91.5038 107.078 92.0582 107.685 92.4684C108.292 92.8785 109.107 93.0835 110.129 93.0835C110.784 93.0835 111.423 93.0304 112.047 92.9241C112.686 92.8025 113.205 92.6582 113.604 92.4911L114.084 95.2481C113.892 95.3392 113.636 95.4304 113.317 95.5215C112.997 95.6127 112.638 95.6886 112.238 95.7494C111.855 95.8253 111.439 95.8861 110.992 95.9316C110.545 95.9772 110.097 96 109.65 96C108.516 96 107.525 95.8405 106.678 95.5215C105.847 95.2025 105.152 94.7696 104.593 94.2228C104.05 93.6608 103.642 93 103.371 92.2405C103.115 91.481 102.987 90.6608 102.987 89.7797ZM111.376 88.481C111.36 88.1924 111.304 87.9114 111.208 87.638C111.128 87.3646 110.992 87.1215 110.8 86.9089C110.625 86.6962 110.393 86.5215 110.105 86.3848C109.834 86.2481 109.49 86.1797 109.075 86.1797C108.675 86.1797 108.332 86.2481 108.044 86.3848C107.757 86.5063 107.517 86.6734 107.325 86.8861C107.134 87.0987 106.982 87.3494 106.87 87.638C106.774 87.9114 106.702 88.1924 106.654 88.481H111.376Z" fill="url(#paint4_linear)"/>
<path d="M125.659 89.5975C125.659 87.4101 124.812 86.3165 123.119 86.3165C122.751 86.3165 122.384 86.362 122.016 86.4532C121.665 86.5443 121.377 86.6582 121.153 86.7949V92.9696C121.329 93 121.553 93.0304 121.824 93.0608C122.096 93.0759 122.392 93.0835 122.711 93.0835C123.686 93.0835 124.421 92.7646 124.916 92.1266C125.411 91.4886 125.659 90.6456 125.659 89.5975ZM129.302 89.6886C129.302 90.6456 129.15 91.5114 128.847 92.2861C128.559 93.0608 128.136 93.7215 127.576 94.2684C127.017 94.8152 126.33 95.2405 125.515 95.5443C124.7 95.8329 123.774 95.9772 122.735 95.9772C122.304 95.9772 121.848 95.9544 121.369 95.9089C120.906 95.8785 120.442 95.8329 119.979 95.7722C119.532 95.7114 119.1 95.643 118.685 95.5671C118.269 95.4759 117.902 95.3848 117.582 95.2937V78.5468L121.153 78V83.9696C121.553 83.8025 121.968 83.6734 122.4 83.5823C122.831 83.4911 123.294 83.4456 123.79 83.4456C124.684 83.4456 125.475 83.5975 126.162 83.9013C126.849 84.1899 127.425 84.6076 127.888 85.1544C128.351 85.7013 128.703 86.362 128.942 87.1367C129.182 87.8962 129.302 88.7468 129.302 89.6886Z" fill="url(#paint5_linear)"/>
<path d="M137.271 79.7089C139.748 79.7089 141.649 80.1266 142.975 80.962C144.301 81.7823 144.964 83.1342 144.964 85.0177C144.964 86.9165 144.293 88.2911 142.951 89.1418C141.609 89.9772 139.692 90.3949 137.199 90.3949H136.025V95.681H132.286V80.119C133.101 79.9671 133.964 79.8608 134.874 79.8C135.785 79.7392 136.584 79.7089 137.271 79.7089ZM137.511 82.7392C137.239 82.7392 136.968 82.7468 136.696 82.762C136.44 82.7772 136.217 82.7924 136.025 82.8076V87.3646H137.199C138.493 87.3646 139.468 87.1975 140.123 86.8633C140.778 86.5291 141.106 85.9063 141.106 84.9949C141.106 84.5544 141.018 84.1899 140.842 83.9013C140.682 83.6127 140.443 83.3848 140.123 83.2177C139.819 83.0354 139.444 82.9139 138.997 82.8532C138.549 82.7772 138.054 82.7392 137.511 82.7392Z" fill="url(#paint6_linear)"/>
<path d="M148.488 93.881C148.488 94.5646 148.257 95.0886 147.793 95.4532C147.346 95.8025 146.835 95.9772 146.259 95.9772C145.684 95.9772 145.165 95.8025 144.702 95.4532C144.254 95.0886 144.03 94.5646 144.03 93.881C144.03 93.1975 144.254 92.681 144.702 92.3316C145.165 91.9671 145.684 91.7848 146.259 91.7848C146.835 91.7848 147.346 91.9671 147.793 92.3316C148.257 92.681 148.488 93.1975 148.488 93.881Z" fill="url(#paint7_linear)"/>
<path d="M168.029 95.681C166.958 93.8734 165.8 92.0886 164.553 90.3266C163.307 88.5646 161.981 86.9013 160.575 85.3367V95.681H156.884V79.8911H159.928C160.455 80.3924 161.038 81.0076 161.678 81.7367C162.317 82.4658 162.964 83.2481 163.619 84.0835C164.29 84.9038 164.953 85.762 165.608 86.6582C166.263 87.5392 166.878 88.3899 167.453 89.2101V79.8911H171.168V95.681H168.029Z" fill="url(#paint8_linear)"/>
<path d="M174.161 89.7797C174.161 88.7165 174.328 87.7899 174.664 87C175.015 86.1949 175.471 85.5266 176.03 84.9949C176.589 84.4633 177.228 84.0608 177.947 83.7873C178.682 83.5139 179.433 83.3772 180.2 83.3772C181.99 83.3772 183.404 83.9013 184.442 84.9494C185.481 85.9823 186 87.5089 186 89.5291C186 89.7266 185.992 89.9468 185.976 90.1899C185.96 90.4177 185.944 90.6228 185.928 90.8051H177.827C177.907 91.5038 178.251 92.0582 178.858 92.4684C179.465 92.8785 180.28 93.0835 181.302 93.0835C181.958 93.0835 182.597 93.0304 183.22 92.9241C183.859 92.8025 184.378 92.6582 184.778 92.4911L185.257 95.2481C185.065 95.3392 184.81 95.4304 184.49 95.5215C184.17 95.6127 183.811 95.6886 183.412 95.7494C183.028 95.8253 182.613 95.8861 182.165 95.9316C181.718 95.9772 181.271 96 180.823 96C179.689 96 178.698 95.8405 177.851 95.5215C177.021 95.2025 176.326 94.7696 175.766 94.2228C175.223 93.6608 174.816 93 174.544 92.2405C174.288 91.481 174.161 90.6608 174.161 89.7797ZM182.549 88.481C182.533 88.1924 182.477 87.9114 182.381 87.638C182.301 87.3646 182.165 87.1215 181.974 86.9089C181.798 86.6962 181.566 86.5215 181.279 86.3848C181.007 86.2481 180.663 86.1797 180.248 86.1797C179.849 86.1797 179.505 86.2481 179.217 86.3848C178.93 86.5063 178.69 86.6734 178.498 86.8861C178.307 87.0987 178.155 87.3494 178.043 87.638C177.947 87.9114 177.875 88.1924 177.827 88.481H182.549Z" fill="url(#paint9_linear)"/>
<path d="M188.636 80.7114L192.207 80.1646V83.6962H196.497V86.5215H192.207V90.7367C192.207 91.4506 192.335 92.0203 192.59 92.4456C192.862 92.8709 193.397 93.0835 194.196 93.0835C194.579 93.0835 194.971 93.0532 195.37 92.9924C195.786 92.9165 196.161 92.8177 196.497 92.6962L197 95.3392C196.569 95.5063 196.089 95.6506 195.562 95.7722C195.035 95.8937 194.388 95.9544 193.621 95.9544C192.646 95.9544 191.839 95.8329 191.2 95.5899C190.561 95.3316 190.05 94.9823 189.666 94.5418C189.283 94.0861 189.011 93.5392 188.851 92.9013C188.708 92.2633 188.636 91.557 188.636 90.7823V80.7114Z" fill="url(#paint10_linear)"/>
</g>
<g filter="url(#filter1_d)">
<path fill-rule="evenodd" clip-rule="evenodd" d="M24.5 4H71.0553C75.9873 4 80.0001 8.04519 79.9999 13.0176V46.6423L66.0428 30.3667C65.07 29.1752 63.638 28.4471 62.1081 28.368C60.5681 28.2889 59.0571 28.8743 57.9662 29.9754L39.098 49.0263L32.0447 43.1217C30.0029 41.4124 27.0557 41.4277 25.0314 43.1554L10 55.7406V13.0176C10 8.36673 13.5106 4.52704 18.0004 4.0499C18.0268 5.58316 19.2637 7.26667 20.7857 7.26667H21.7143C23.2528 7.26667 24.5 6.01307 24.5 4.46667V4ZM18.0004 4.0499C18.0003 4.0396 18.0001 4.02931 18.0001 4.01902C18 4.01268 18 4.00634 18 4H18.9448C18.6259 4 18.3108 4.01691 18.0004 4.0499ZM27.7857 8C26.2472 8 25 9.2536 25 10.8V11.7333C25 13.2797 26.2472 14.5333 27.7857 14.5333H28.7143C30.2528 14.5333 31.5 13.2797 31.5 11.7333V10.8C31.5 9.2536 30.2528 8 28.7143 8H27.7857ZM18 18.8C18 17.2536 19.2472 16 20.7857 16H21.7143C23.2528 16 24.5 17.2536 24.5 18.8V19.7333C24.5 21.2797 23.2528 22.5333 21.7143 22.5333H20.7857C19.2472 22.5333 18 21.2797 18 19.7333V18.8ZM27.7857 21C26.2472 21 25 22.2472 25 23.7857V24.7143C25 26.2528 26.2472 27.5 27.7857 27.5H28.7143C30.2528 27.5 31.5 26.2528 31.5 24.7143V23.7857C31.5 22.2472 30.2528 21 28.7143 21H27.7857ZM18 30.7857C18 29.2472 19.2472 28 20.7857 28H21.7143C23.2528 28 24.5 29.2472 24.5 30.7857V31.7143C24.5 33.2528 23.2528 34.5 21.7143 34.5H20.7857C19.2472 34.5 18 33.2528 18 31.7143V30.7857ZM25 37.7857C25 36.2472 26.2472 35 27.7857 35H28.7143C30.2528 35 31.5 36.2472 31.5 37.7857V38.7143C31.5 40.2528 30.2528 41.5 28.7143 41.5H27.7857C26.2472 41.5 25 40.2528 25 38.7143V37.7857ZM62.8647 32.4459C62.8781 32.4626 62.8915 32.4788 62.9055 32.495L80 52.4293V64.9824C80 69.9547 75.9874 74 71.0552 74H18.9448C14.0126 74 10 69.9548 10 64.9824V60.5749L27.689 45.7647L27.6934 45.761C28.1881 45.3364 28.9106 45.3318 29.4108 45.7507L37.9112 52.8666C38.7308 53.5527 39.9341 53.4963 40.6871 52.7362L60.8842 32.3433C61.2493 31.9748 61.6755 31.9385 61.897 31.9503C62.1185 31.9618 62.5389 32.0415 62.8647 32.4459ZM20.4997 54.4C20.6316 52.8173 21.9546 51.6 23.5428 51.6H29.59C31.1781 51.6 32.5012 52.8173 32.633 54.4V55.1L32.8664 59.0666L33.1471 63.5586C33.2479 65.1706 31.9677 66.5333 30.3526 66.5333H22.7802C21.1651 66.5333 19.8849 65.1706 19.9856 63.5586L20.2664 59.0666L20.4997 55.1V54.4ZM30.0729 60.4666H23.6262C22.8842 60.4666 22.2812 61.0266 22.2348 61.7266L22.1421 62.66C22.0493 63.5 22.6986 64.2 23.5335 64.2H30.0729C30.8613 64.2 31.5106 63.5 31.4642 62.7066L31.4179 61.7733C31.3715 61.0266 30.7686 60.4666 30.0729 60.4666ZM72.7649 61.76C74.4609 61.76 75.3089 62.912 75.3089 65.216C75.3089 66.32 75.0609 67.208 74.5649 67.88C74.0689 68.552 73.3329 68.888 72.3569 68.888C72.0369 68.888 71.7409 68.88 71.4689 68.864C71.1969 68.832 70.9729 68.8 70.7969 68.768V62.264C71.0209 62.12 71.3089 62 71.6609 61.904C72.0289 61.808 72.3969 61.76 72.7649 61.76ZM78.5009 68.048C78.8049 67.232 78.9569 66.32 78.9569 65.312C78.9569 64.32 78.8369 63.424 78.5969 62.624C78.3569 61.808 78.0049 61.112 77.5409 60.536C77.0769 59.96 76.5009 59.52 75.8129 59.216C75.1249 58.896 74.3329 58.736 73.4369 58.736C72.9409 58.736 72.4769 58.784 72.0449 58.88C71.6129 58.976 71.1969 59.112 70.7969 59.288V53L67.2209 53.576V71.216C67.5409 71.312 67.9089 71.408 68.3249 71.504C68.7409 71.584 69.1729 71.656 69.6209 71.72C70.0849 71.784 70.5489 71.832 71.0129 71.864C71.4929 71.912 71.9489 71.936 72.3809 71.936C73.4209 71.936 74.3489 71.784 75.1649 71.48C75.9809 71.16 76.6689 70.712 77.2289 70.136C77.7889 69.56 78.2129 68.864 78.5009 68.048ZM63.8594 71.624H60.2834V59H63.8594V71.624ZM64.1954 55.352C64.1954 56.008 63.9794 56.528 63.5474 56.912C63.1314 57.28 62.6354 57.464 62.0594 57.464C61.4834 57.464 60.9794 57.28 60.5474 56.912C60.1314 56.528 59.9234 56.008 59.9234 55.352C59.9234 54.696 60.1314 54.184 60.5474 53.816C60.9794 53.432 61.4834 53.24 62.0594 53.24C62.6354 53.24 63.1314 53.432 63.5474 53.816C63.9794 54.184 64.1954 54.696 64.1954 55.352ZM58.112 68.408V71.624H47V54.992H50.744V68.408H58.112ZM93.1053 56.768C93.2973 57.424 93.5053 58.168 93.7293 59C93.9693 59.816 94.2173 60.664 94.4733 61.544L95.2893 64.184C95.5613 65.064 95.8253 65.88 96.0813 66.632C96.2893 65.816 96.4973 64.928 96.7053 63.968C96.9293 63.008 97.1373 62.016 97.3293 60.992C97.5213 59.968 97.7053 58.952 97.8813 57.944C98.0733 56.92 98.2493 55.936 98.4093 54.992H102.297C101.737 57.776 101.089 60.6 100.353 63.464C99.6333 66.328 98.8493 69.048 98.0013 71.624H94.5693C94.0093 70.088 93.4653 68.48 92.9373 66.8C92.4093 65.104 91.8893 63.408 91.3773 61.712L89.8413 66.8C89.3293 68.48 88.7933 70.088 88.2333 71.624H84.8013C83.9533 69.048 83.1613 66.328 82.4253 63.464C81.7053 60.6 81.0653 57.776 80.5053 54.992H84.5613C84.7213 55.936 84.8973 56.92 85.0893 57.944C85.2813 58.952 85.4813 59.968 85.6893 60.992C85.8973 62.016 86.1053 63.008 86.3133 63.968C86.5373 64.928 86.7613 65.816 86.9853 66.632C87.2733 65.848 87.5533 65.016 87.8253 64.136C88.0973 63.256 88.3613 62.376 88.6173 61.496C88.8733 60.616 89.1053 59.768 89.3133 58.952C89.5373 58.136 89.7373 57.408 89.9133 56.768H93.1053ZM103.57 62.48C103.234 63.312 103.066 64.288 103.066 65.408C103.066 66.336 103.194 67.2 103.45 68C103.722 68.8 104.13 69.496 104.674 70.088C105.234 70.664 105.93 71.12 106.762 71.456C107.61 71.792 108.602 71.96 109.738 71.96C110.186 71.96 110.634 71.936 111.082 71.888C111.53 71.84 111.946 71.776 112.33 71.696C112.73 71.632 113.09 71.552 113.41 71.456C113.73 71.36 113.986 71.264 114.178 71.168L113.698 68.264C113.298 68.44 112.778 68.592 112.138 68.72C111.514 68.832 110.874 68.888 110.218 68.888C109.194 68.888 108.378 68.672 107.77 68.24C107.162 67.808 106.818 67.224 106.738 66.488H114.85C114.866 66.296 114.882 66.08 114.898 65.84C114.914 65.584 114.922 65.352 114.922 65.144C114.922 63.016 114.402 61.408 113.362 60.32C112.322 59.216 110.906 58.664 109.114 58.664C108.346 58.664 107.594 58.808 106.858 59.096C106.138 59.384 105.498 59.808 104.938 60.368C104.378 60.928 103.922 61.632 103.57 62.48ZM111.298 63.152C111.394 63.44 111.45 63.736 111.466 64.04H106.738C106.786 63.736 106.858 63.44 106.954 63.152C107.066 62.848 107.218 62.584 107.41 62.36C107.602 62.136 107.842 61.96 108.13 61.832C108.418 61.688 108.762 61.616 109.162 61.616C109.578 61.616 109.922 61.688 110.194 61.832C110.482 61.976 110.714 62.16 110.89 62.384C111.082 62.608 111.218 62.864 111.298 63.152ZM123.226 61.76C122.858 61.76 122.49 61.808 122.122 61.904C121.77 62 121.482 62.12 121.258 62.264V68.768C121.434 68.8 121.658 68.832 121.93 68.864C122.202 68.88 122.498 68.888 122.818 68.888C123.794 68.888 124.53 68.552 125.026 67.88C125.522 67.208 125.77 66.32 125.77 65.216C125.77 62.912 124.922 61.76 123.226 61.76ZM129.418 65.312C129.418 66.32 129.266 67.232 128.962 68.048C128.674 68.864 128.25 69.56 127.69 70.136C127.13 70.712 126.442 71.16 125.626 71.48C124.81 71.784 123.882 71.936 122.842 71.936C122.41 71.936 121.954 71.912 121.474 71.864C121.01 71.832 120.546 71.784 120.082 71.72C119.634 71.656 119.202 71.584 118.786 71.504C118.37 71.408 118.002 71.312 117.682 71.216V53.576L121.258 53V59.288C121.658 59.112 122.074 58.976 122.506 58.88C122.938 58.784 123.402 58.736 123.898 58.736C124.794 58.736 125.586 58.896 126.274 59.216C126.962 59.52 127.538 59.96 128.002 60.536C128.466 61.112 128.818 61.808 129.058 62.624C129.298 63.424 129.418 64.32 129.418 65.312ZM143.11 56.12C141.782 55.24 139.878 54.8 137.398 54.8C136.71 54.8 135.91 54.832 134.998 54.896C134.086 54.96 133.222 55.072 132.406 55.232V71.624H136.15V66.056H137.326C139.822 66.056 141.742 65.616 143.086 64.736C144.43 63.84 145.102 62.392 145.102 60.392C145.102 58.408 144.438 56.984 143.11 56.12ZM136.822 58.016C137.094 58 137.366 57.992 137.638 57.992C138.182 57.992 138.678 58.032 139.126 58.112C139.574 58.176 139.95 58.304 140.254 58.496C140.574 58.672 140.814 58.912 140.974 59.216C141.15 59.52 141.238 59.904 141.238 60.368C141.238 61.328 140.91 61.984 140.254 62.336C139.598 62.688 138.622 62.864 137.326 62.864H136.15V58.064C136.342 58.048 136.566 58.032 136.822 58.016ZM148.631 69.728C148.631 70.448 148.399 71 147.935 71.384C147.487 71.752 146.975 71.936 146.399 71.936C145.823 71.936 145.303 71.752 144.839 71.384C144.391 71 144.167 70.448 144.167 69.728C144.167 69.008 144.391 68.464 144.839 68.096C145.303 67.712 145.823 67.52 146.399 67.52C146.975 67.52 147.487 67.712 147.935 68.096C148.399 68.464 148.631 69.008 148.631 69.728ZM164.719 65.984C165.967 67.84 167.127 69.72 168.199 71.624H171.343V54.992H167.623V64.808C167.047 63.944 166.431 63.048 165.775 62.12C165.119 61.176 164.455 60.272 163.783 59.408C163.127 58.528 162.479 57.704 161.839 56.936C161.199 56.168 160.615 55.52 160.087 54.992H157.039V71.624H160.735V60.728C162.143 62.376 163.471 64.128 164.719 65.984ZM174.34 65.408C174.34 64.288 174.508 63.312 174.844 62.48C175.196 61.632 175.652 60.928 176.212 60.368C176.772 59.808 177.412 59.384 178.132 59.096C178.868 58.808 179.62 58.664 180.388 58.664C182.18 58.664 183.596 59.216 184.636 60.32C185.676 61.408 186.196 63.016 186.196 65.144C186.196 65.352 186.188 65.584 186.172 65.84C186.156 66.08 186.14 66.296 186.124 66.488H178.012C178.092 67.224 178.436 67.808 179.044 68.24C179.652 68.672 180.468 68.888 181.492 68.888C182.148 68.888 182.788 68.832 183.412 68.72C184.052 68.592 184.572 68.44 184.972 68.264L185.452 71.168C185.26 71.264 185.004 71.36 184.684 71.456C184.364 71.552 184.004 71.632 183.604 71.696C183.22 71.776 182.804 71.84 182.356 71.888C181.908 71.936 181.46 71.96 181.012 71.96C179.876 71.96 178.884 71.792 178.036 71.456C177.204 71.12 176.508 70.664 175.948 70.088C175.404 69.496 174.996 68.8 174.724 68C174.468 67.2 174.34 66.336 174.34 65.408ZM182.74 64.04C182.724 63.736 182.668 63.44 182.572 63.152C182.492 62.864 182.356 62.608 182.164 62.384C181.988 62.16 181.756 61.976 181.468 61.832C181.196 61.688 180.852 61.616 180.436 61.616C180.036 61.616 179.692 61.688 179.404 61.832C179.116 61.96 178.876 62.136 178.684 62.36C178.492 62.584 178.34 62.848 178.228 63.152C178.132 63.44 178.06 63.736 178.012 64.04H182.74ZM192.411 55.28L188.835 55.856V66.464C188.835 67.28 188.907 68.024 189.051 68.696C189.211 69.368 189.483 69.944 189.867 70.424C190.251 70.888 190.763 71.256 191.403 71.528C192.043 71.784 192.851 71.912 193.827 71.912C194.595 71.912 195.243 71.848 195.771 71.72C196.299 71.592 196.779 71.44 197.211 71.264L196.707 68.48C196.371 68.608 195.995 68.712 195.579 68.792C195.179 68.856 194.787 68.888 194.403 68.888C193.603 68.888 193.067 68.664 192.795 68.216C192.539 67.768 192.411 67.168 192.411 66.416V61.976H196.707V59H192.411V55.28Z" fill="url(#paint11_linear)"/>
</g>
<defs>
<filter id="filter0_f" x="45" y="76" width="154" height="22" filterUnits="userSpaceOnUse" color-interpolation-filters="sRGB">
<feFlood flood-opacity="0" result="BackgroundImageFix"/>
<feBlend mode="normal" in="SourceGraphic" in2="BackgroundImageFix" result="shape"/>
<feGaussianBlur stdDeviation="1" result="effect1_foregroundBlur"/>
</filter>
<filter id="filter1_d" x="0" y="0" width="207.211" height="90" filterUnits="userSpaceOnUse" color-interpolation-filters="sRGB">
<feFlood flood-opacity="0" result="BackgroundImageFix"/>
<feColorMatrix in="SourceAlpha" type="matrix" values="0 0 0 0 0 0 0 0 0 0 0 0 0 0 0 0 0 0 127 0" result="hardAlpha"/>
<feOffset dy="6"/>
<feGaussianBlur stdDeviation="5"/>
<feComposite in2="hardAlpha" operator="out"/>
<feColorMatrix type="matrix" values="0 0 0 0 0.219608 0 0 0 0 0.117647 0 0 0 0 0.541176 0 0 0 0.2 0"/>
<feBlend mode="normal" in2="BackgroundImageFix" result="effect1_dropShadow"/>
<feBlend mode="normal" in="SourceGraphic" in2="effect1_dropShadow" result="shape"/>
</filter>
<linearGradient id="paint0_linear" x1="117.9" y1="29.5823" x2="117.9" y2="96.038" gradientUnits="userSpaceOnUse">
<stop stop-color="#5A189A"/>
<stop offset="0.72476" stop-color="#A059DB" stop-opacity="0.29"/>
<stop offset="0.966981" stop-color="#C77DFF" stop-opacity="0"/>
</linearGradient>
<linearGradient id="paint1_linear" x1="117.9" y1="29.5823" x2="117.9" y2="96.038" gradientUnits="userSpaceOnUse">
<stop stop-color="#5A189A"/>
<stop offset="0.72476" stop-color="#A059DB" stop-opacity="0.29"/>
<stop offset="0.966981" stop-color="#C77DFF" stop-opacity="0"/>
</linearGradient>
<linearGradient id="paint2_linear" x1="117.9" y1="29.5823" x2="117.9" y2="96.038" gradientUnits="userSpaceOnUse">
<stop stop-color="#5A189A"/>
<stop offset="0.72476" stop-color="#A059DB" stop-opacity="0.29"/>
<stop offset="0.966981" stop-color="#C77DFF" stop-opacity="0"/>
</linearGradient>
<linearGradient id="paint3_linear" x1="117.9" y1="29.5823" x2="117.9" y2="96.038" gradientUnits="userSpaceOnUse">
<stop stop-color="#5A189A"/>
<stop offset="0.72476" stop-color="#A059DB" stop-opacity="0.29"/>
<stop offset="0.966981" stop-color="#C77DFF" stop-opacity="0"/>
</linearGradient>
<linearGradient id="paint4_linear" x1="117.9" y1="29.5823" x2="117.9" y2="96.038" gradientUnits="userSpaceOnUse">
<stop stop-color="#5A189A"/>
<stop offset="0.72476" stop-color="#A059DB" stop-opacity="0.29"/>
<stop offset="0.966981" stop-color="#C77DFF" stop-opacity="0"/>
</linearGradient>
<linearGradient id="paint5_linear" x1="117.9" y1="29.5823" x2="117.9" y2="96.038" gradientUnits="userSpaceOnUse">
<stop stop-color="#5A189A"/>
<stop offset="0.72476" stop-color="#A059DB" stop-opacity="0.29"/>
<stop offset="0.966981" stop-color="#C77DFF" stop-opacity="0"/>
</linearGradient>
<linearGradient id="paint6_linear" x1="117.9" y1="29.5823" x2="117.9" y2="96.038" gradientUnits="userSpaceOnUse">
<stop stop-color="#5A189A"/>
<stop offset="0.72476" stop-color="#A059DB" stop-opacity="0.29"/>
<stop offset="0.966981" stop-color="#C77DFF" stop-opacity="0"/>
</linearGradient>
<linearGradient id="paint7_linear" x1="117.9" y1="29.5823" x2="117.9" y2="96.038" gradientUnits="userSpaceOnUse">
<stop stop-color="#5A189A"/>
<stop offset="0.72476" stop-color="#A059DB" stop-opacity="0.29"/>
<stop offset="0.966981" stop-color="#C77DFF" stop-opacity="0"/>
</linearGradient>
<linearGradient id="paint8_linear" x1="117.9" y1="29.5823" x2="117.9" y2="96.038" gradientUnits="userSpaceOnUse">
<stop stop-color="#5A189A"/>
<stop offset="0.72476" stop-color="#A059DB" stop-opacity="0.29"/>
<stop offset="0.966981" stop-color="#C77DFF" stop-opacity="0"/>
</linearGradient>
<linearGradient id="paint9_linear" x1="117.9" y1="29.5823" x2="117.9" y2="96.038" gradientUnits="userSpaceOnUse">
<stop stop-color="#5A189A"/>
<stop offset="0.72476" stop-color="#A059DB" stop-opacity="0.29"/>
<stop offset="0.966981" stop-color="#C77DFF" stop-opacity="0"/>
</linearGradient>
<linearGradient id="paint10_linear" x1="117.9" y1="29.5823" x2="117.9" y2="96.038" gradientUnits="userSpaceOnUse">
<stop stop-color="#5A189A"/>
<stop offset="0.72476" stop-color="#A059DB" stop-opacity="0.29"/>
<stop offset="0.966981" stop-color="#C77DFF" stop-opacity="0"/>
</linearGradient>
<linearGradient id="paint11_linear" x1="69.0776" y1="-52.5" x2="52.549" y2="79.3345" gradientUnits="userSpaceOnUse">
<stop stop-color="#9D4EDD"/>
<stop offset="0.457612" stop-color="#9D4EDD"/>
<stop offset="0.995317" stop-color="#03045E"/>
</linearGradient>
</defs>
</svg>
